<?xml version="1.0" encoding="utf-8"?>
<!-- Generator: Adobe Illustrator 19.0.0, SVG Export Plug-In . SVG Version: 6.00 Build 0)  -->
<svg version="1.1" id="Layer_1" xmlns="http://www.w3.org/2000/svg" xmlns:xlink="http://www.w3.org/1999/xlink" x="0px" y="0px"
	 viewBox="0 0 307.5 208.6" style="enable-background:new 0 0 307.5 208.6;" xml:space="preserve">
<style type="text/css">
	.st0{fill:#818181;}
	.st1{fill:#231F20;}
</style>
<g id="XMLID_66_">
	
		<text id="XMLID_86_" transform="matrix(1.0308 0 0 1 -442.6836 45.1064)" class="st0" style="font-family:'HKGrotesk-Regular'; font-size:14px;">FEATURED ARTICLE HEADLINE — 40px</text>
	<rect id="XMLID_85_" x="-443" y="3.4" style="fill:none;" width="375.5" height="26.6"/>
	
		<text id="XMLID_84_" transform="matrix(1 0 0 1 -443 21.168)" class="st1" style="font-family:'Heuristica-BoldItalic'; font-size:24px; letter-spacing:1;">Heuristica Bold Italic</text>
	
		<text id="XMLID_83_" transform="matrix(1.0308 0 0 1 -442.6836 125.1064)" class="st0" style="font-family:'HKGrotesk-Regular'; font-size:14px;">ARTICLE HEADLINE — 24px </text>
	<rect id="XMLID_82_" x="-443" y="88.4" style="fill:none;" width="325" height="26.6"/>
	
		<text id="XMLID_81_" transform="matrix(1 0 0 1 -443 105.4004)" class="st1" style="font-family:'FranklinGothic-DemiCond'; font-size:24px; letter-spacing:1;">Franklin Gothic Demi Cond</text>
	
		<text id="XMLID_80_" transform="matrix(1.0308 0 0 1 -442.6836 237.1064)" class="st0" style="font-family:'HKGrotesk-Regular'; font-size:14px;">ARTICLE TEXT — 14px</text>
	<g id="XMLID_75_">
		<rect id="XMLID_32_" x="-443" y="195.4" style="fill:none;" width="325" height="26.6"/>
		
			<text id="XMLID_31_" transform="matrix(1 0 0 1 -443 213.168)" class="st1" style="font-family:'Heuristica-Regular'; font-size:24px;">Heuristica Regular</text>
	</g>
	<g id="XMLID_70_">
		<rect id="XMLID_30_" x="-443" y="166.4" style="fill:none;" width="325" height="26.6"/>
		
			<text id="XMLID_29_" transform="matrix(1 0 0 1 -443 184.168)" class="st1" style="font-family:'Heuristica-BoldItalic'; font-size:24px;">Heuristica Bold Italic</text>
	</g>
	
		<text id="XMLID_69_" transform="matrix(1.0308 0 0 1 -442.6836 318.1064)" class="st0" style="font-family:'HKGrotesk-Regular'; font-size:14px;">BUTTONS — 16px</text>
	<rect id="XMLID_68_" x="-443" y="276.4" style="fill:none;" width="325" height="26.6"/>
	
		<text id="XMLID_67_" transform="matrix(1 0 0 1 -443 294.3604)" class="st1" style="font-family:'Roboto-Light'; font-size:24px; letter-spacing:1;">Roboto Light</text>
</g>
<g id="XMLID_6_">
</g>
<g id="XMLID_1_">
	<g id="XMLID_5_">
		<path id="XMLID_376_" class="st0" d="M1.7,35.4h1.2v4.3h4.9v-4.3H9v9.7H7.8v-4.3H2.9v4.3H1.7V35.4z"/>
		<path id="XMLID_378_" class="st0" d="M12.5,35.4H19v1h-5.3v3.3h4.6v1h-4.6V44H19v1.1h-6.5V35.4z"/>
		<path id="XMLID_380_" class="st0" d="M24.8,35.4h0.9l3.8,9.7h-1.3L27.4,43h-4.3l-0.8,2.1H21L24.8,35.4z M27,41.9l-1.7-4.8
			l-1.7,4.8H27z"/>
		<path id="XMLID_383_" class="st0" d="M31.8,35.4h2.6c3.2,0,5,1.7,5,4.9c0,3.1-1.8,4.8-5.1,4.8h-2.6V35.4z M34.3,44
			c2.3,0,4-1.1,4-3.8c0-2.5-1.2-3.8-3.8-3.8h-1.4V44H34.3z"/>
		<path id="XMLID_386_" class="st0" d="M42.5,35.4h1.2V44h4.3v1.1h-5.5V35.4z"/>
		<path id="XMLID_388_" class="st0" d="M50.5,35.4h1.2v9.7h-1.2V35.4z"/>
		<path id="XMLID_390_" class="st0" d="M55.1,35.4h1.6l4.3,8.2v-8.2h1.2v9.7h-1.6l-4.3-8.2v8.2h-1.2V35.4z"/>
		<path id="XMLID_392_" class="st0" d="M65.6,35.4h6.5v1h-5.3v3.3h4.6v1h-4.6V44h5.3v1.1h-6.5V35.4z"/>
		<path id="XMLID_394_" class="st0" d="M78.4,40.4H88v0.8h-9.6V40.4z"/>
		<path id="XMLID_396_" class="st0" d="M98.3,42.6h-4.6v-0.7l4.7-6.4h1.1v6.1h1.6v1h-1.6v2.5h-1.2V42.6z M98.3,41.5v-4.3l-3.2,4.3
			H98.3z"/>
		<path id="XMLID_399_" class="st0" d="M102.8,40.3c0-2.2,0.9-5,3.7-5c2.5,0,3.7,2.5,3.7,5c0,2.5-1.2,4.9-3.6,4.9
			C103.7,45.2,102.8,42.4,102.8,40.3z M108.9,40.3c0-1.7-0.6-3.9-2.5-3.9s-2.5,2.2-2.5,3.9c0,1.7,0.6,3.9,2.5,3.9
			C108.3,44.2,108.9,41.9,108.9,40.3z"/>
		<path id="XMLID_402_" class="st0" d="M112.7,38.3h1.2v0.9c0.5-0.6,1.2-1.1,2.2-1.1c1.8,0,2.9,1.6,2.9,3.6c0,2-1,3.6-2.9,3.6
			c-1,0-1.7-0.4-2.2-1.1v3.9h-1.2V38.3z M117.7,41.7c0-1.4-0.6-2.6-2-2.6c-1.4,0-2,1.2-2,2.6c0,1.4,0.6,2.6,2,2.6
			C117.1,44.3,117.7,43.1,117.7,41.7z"/>
		<path id="XMLID_405_" class="st0" d="M123,41.7l-2.4-3.4h1.4l1.6,2.5l1.6-2.5h1.4l-2.4,3.4l2.4,3.4h-1.4l-1.6-2.5l-1.6,2.5h-1.4
			L123,41.7z"/>
	</g>
	<g id="XMLID_361_">
		<path id="XMLID_362_" class="st1" d="M11.7,20.6H2.5c-0.3,0-0.5-0.1-0.7-0.2c-0.1-0.1-0.2-0.4-0.2-0.7V4.2c0-0.3,0.1-0.5,0.2-0.7
			C2,3.4,2.2,3.4,2.5,3.4h7.7c1.6,0,2.7,0.3,3.5,0.9s1.1,1.5,1.1,2.8v1.2c0,0.7-0.1,1.2-0.3,1.6c-0.2,0.4-0.6,0.7-1.1,0.9
			c1,0.1,1.8,0.4,2.3,1.1c0.5,0.6,0.7,1.5,0.7,2.7v2.2c0,1.3-0.4,2.3-1.1,3C14.5,20.3,13.3,20.6,11.7,20.6z M7.1,7.4V10h2
			c0.3,0,0.5-0.1,0.7-0.2C9.9,9.6,10,9.4,10,9.1V8.4c0-0.3-0.1-0.6-0.2-0.7C9.6,7.5,9.4,7.4,9.1,7.4H7.1z M7.1,13.7v2.8h3.1
			c0.3,0,0.5-0.1,0.7-0.2c0.2-0.2,0.2-0.4,0.2-0.7v-0.9c0-0.3-0.1-0.6-0.2-0.7c-0.2-0.2-0.4-0.2-0.7-0.2H7.1z"/>
		<path id="XMLID_366_" class="st1" d="M35,16.1c0,0.7-0.1,1.4-0.3,2c-0.2,0.6-0.6,1.1-1.2,1.5c-0.6,0.4-1.3,0.8-2.3,1
			S29,21,27.6,21c-1.5,0-2.7-0.1-3.7-0.4c-1-0.2-1.7-0.6-2.3-1c-0.6-0.4-0.9-0.9-1.2-1.5c-0.2-0.6-0.3-1.3-0.3-2V4.2
			c0-0.3,0.1-0.5,0.2-0.7c0.1-0.1,0.4-0.2,0.7-0.2h3.8c0.3,0,0.5,0.1,0.7,0.2c0.1,0.1,0.2,0.4,0.2,0.7v10.9c0,0.3,0.1,0.6,0.4,0.8
			c0.2,0.2,0.8,0.3,1.6,0.3c0.8,0,1.4-0.1,1.6-0.3c0.2-0.2,0.4-0.5,0.4-0.8V4.2c0-0.3,0.1-0.5,0.2-0.7c0.1-0.1,0.4-0.2,0.7-0.2h3.6
			c0.3,0,0.5,0.1,0.7,0.2C34.9,3.7,35,3.9,35,4.2V16.1z"/>
		<path id="XMLID_368_" class="st1" d="M43.8,20.6h-3.6c-0.3,0-0.5-0.1-0.7-0.2c-0.1-0.1-0.2-0.4-0.2-0.7V4.2c0-0.3,0.1-0.5,0.2-0.7
			c0.1-0.1,0.4-0.2,0.7-0.2h2.5c0.3,0,0.6,0,0.8,0.1c0.2,0.1,0.4,0.3,0.6,0.5l4.7,5.3V4.2c0-0.3,0.1-0.5,0.2-0.7
			c0.1-0.1,0.4-0.2,0.7-0.2h3.6c0.3,0,0.5,0.1,0.7,0.2c0.1,0.1,0.2,0.4,0.2,0.7v15.6c0,0.3-0.1,0.5-0.2,0.7
			c-0.1,0.1-0.4,0.2-0.7,0.2h-3.6c-0.3,0-0.5-0.1-0.7-0.2c-0.1-0.1-0.2-0.4-0.2-0.7v-3l-4.1-5v7.9c0,0.3-0.1,0.5-0.2,0.7
			C44.3,20.6,44.1,20.6,43.8,20.6z"/>
		<path id="XMLID_370_" class="st1" d="M71.8,20.6h-7.6c-2,0-3.5-0.4-4.5-1.2c-1-0.8-1.5-2-1.5-3.7V8.3c0-1.7,0.5-2.9,1.5-3.7
			c1-0.8,2.5-1.2,4.5-1.2h6c0.3,0,0.5,0.1,0.7,0.2c0.1,0.1,0.2,0.4,0.2,0.7v2.9c0,0.3-0.1,0.5-0.2,0.7C70.8,7.9,70.6,8,70.3,8h-5
			c-0.5,0-0.9,0.1-1.1,0.3c-0.2,0.2-0.4,0.5-0.4,0.9v5.7c0,0.4,0.1,0.7,0.3,0.9c0.2,0.2,0.5,0.3,0.8,0.3h2.3v-3.7
			c0-0.3,0.1-0.5,0.2-0.7c0.1-0.1,0.4-0.2,0.7-0.2h3.7c0.3,0,0.5,0.1,0.7,0.2c0.1,0.1,0.2,0.4,0.2,0.7v7.4c0,0.3-0.1,0.5-0.2,0.7
			C72.4,20.6,72.1,20.6,71.8,20.6z"/>
		<path id="XMLID_372_" class="st1" d="M88.8,20.6H77.7c-0.3,0-0.5-0.1-0.7-0.2c-0.1-0.1-0.2-0.4-0.2-0.7V4.2c0-0.3,0.1-0.5,0.2-0.7
			c0.1-0.1,0.4-0.2,0.7-0.2h11.1c0.3,0,0.5,0.1,0.7,0.2c0.1,0.1,0.2,0.4,0.2,0.7V7c0,0.3-0.1,0.5-0.2,0.7c-0.1,0.1-0.4,0.2-0.7,0.2
			h-6.6v1.8h4.7c0.3,0,0.5,0.1,0.7,0.2c0.1,0.1,0.2,0.4,0.2,0.7v2.6c0,0.3-0.1,0.5-0.2,0.7C87.4,14,87.2,14,86.9,14h-4.7v2.1h6.6
			c0.3,0,0.5,0.1,0.7,0.2c0.1,0.1,0.2,0.4,0.2,0.7v2.8c0,0.3-0.1,0.5-0.2,0.7C89.3,20.6,89.1,20.6,88.8,20.6z"/>
		<path id="XMLID_374_" class="st1" d="M105.7,20.6H94.6c-0.3,0-0.5-0.1-0.7-0.2c-0.1-0.1-0.2-0.4-0.2-0.7V4.2
			c0-0.3,0.1-0.5,0.2-0.7c0.1-0.1,0.4-0.2,0.7-0.2h11.1c0.3,0,0.5,0.1,0.7,0.2c0.1,0.1,0.2,0.4,0.2,0.7V7c0,0.3-0.1,0.5-0.2,0.7
			c-0.1,0.1-0.4,0.2-0.7,0.2h-6.6v1.8h4.7c0.3,0,0.5,0.1,0.7,0.2c0.1,0.1,0.2,0.4,0.2,0.7v2.6c0,0.3-0.1,0.5-0.2,0.7
			c-0.1,0.1-0.4,0.2-0.7,0.2h-4.7v2.1h6.6c0.3,0,0.5,0.1,0.7,0.2c0.1,0.1,0.2,0.4,0.2,0.7v2.8c0,0.3-0.1,0.5-0.2,0.7
			C106.2,20.6,106,20.6,105.7,20.6z"/>
	</g>
	<g id="XMLID_4_">
		<path id="XMLID_331_" class="st0" d="M1.7,115.4h1.9l2.8,7.6l2.8-7.6h1.9v9.7H10v-8.5l-2.9,7.7H5.8l-2.9-7.7v8.5H1.7V115.4z"/>
		<path id="XMLID_333_" class="st0" d="M14.7,115.4h6.5v1h-5.3v3.3h4.6v1h-4.6v3.2h5.3v1.1h-6.5V115.4z"/>
		<path id="XMLID_335_" class="st0" d="M24.2,115.4h1.6l4.3,8.2v-8.2h1.2v9.7h-1.6l-4.3-8.2v8.2h-1.2V115.4z"/>
		<path id="XMLID_337_" class="st0" d="M34.5,121.1v-5.7h1.2v5.7c0,1.8,0.5,3,2.3,3s2.3-1.2,2.3-3v-5.7h1.2v5.6c0,2.5-1,4.2-3.5,4.2
			S34.5,123.5,34.5,121.1z"/>
		<path id="XMLID_339_" class="st0" d="M49.4,115.4h1.2v9.7h-1.2V115.4z"/>
		<path id="XMLID_341_" class="st0" d="M56.1,116.4h-3.3v-1h7.9v1h-3.3v8.7h-1.2V116.4z"/>
		<path id="XMLID_343_" class="st0" d="M62.9,115.4h6.5v1h-5.3v3.3h4.6v1h-4.6v3.2h5.3v1.1h-6.5V115.4z"/>
		<path id="XMLID_345_" class="st0" d="M72.4,115.4h1.9l2.8,7.6l2.8-7.6h1.9v9.7h-1.2v-8.5l-2.9,7.7h-1.3l-2.9-7.7v8.5h-1.2V115.4z"
			/>
		<path id="XMLID_347_" class="st0" d="M84.6,122.6l1.2-0.3c0.1,1.3,1.2,1.9,2.4,1.9c1.2,0,1.9-0.5,1.9-1.7c0-2.4-4.8-1.8-4.8-4.7
			c0-1.5,1.3-2.5,2.8-2.5c1.2,0,2.2,0.5,2.8,1.5l-0.9,0.6c-0.4-0.7-1.1-1.1-1.9-1.1c-0.8,0-1.6,0.5-1.6,1.4c0,2.2,4.8,1.6,4.8,4.7
			c0,1.7-1.4,2.8-3.1,2.8C86.4,125.2,84.9,124.4,84.6,122.6z"/>
		<path id="XMLID_349_" class="st0" d="M97.2,120.4h9.6v0.8h-9.6V120.4z"/>
		<path id="XMLID_351_" class="st0" d="M115,117.8h-2.3v-1h1.2c0.8,0,1.2-0.5,1.2-1.2v-0.2h1.1v9.7H115V117.8z"/>
		<path id="XMLID_353_" class="st0" d="M119.4,122c0-0.6,0.2-1.2,0.5-1.7l2.9-4.9h1.3l-2.2,3.5c0.3-0.1,0.5-0.1,0.8-0.1
			c1.8,0,3.3,1.3,3.3,3.1c0,1.7-1.4,3.2-3.3,3.2C120.9,125.2,119.4,123.8,119.4,122z M124.9,122c0-1.2-1-2.2-2.2-2.2
			c-1.2,0-2.2,1-2.2,2.2s1,2.2,2.2,2.2C123.9,124.2,124.9,123.2,124.9,122z"/>
		<path id="XMLID_356_" class="st0" d="M128.7,118.3h1.2v0.9c0.5-0.6,1.2-1.1,2.2-1.1c1.8,0,2.9,1.6,2.9,3.6c0,2-1,3.6-2.9,3.6
			c-1,0-1.7-0.4-2.2-1.1v3.9h-1.2V118.3z M133.7,121.7c0-1.4-0.6-2.6-2-2.6c-1.4,0-2,1.2-2,2.6c0,1.4,0.6,2.6,2,2.6
			C133.1,124.3,133.7,123.1,133.7,121.7z"/>
		<path id="XMLID_359_" class="st0" d="M139,121.7l-2.4-3.4h1.4l1.6,2.5l1.6-2.5h1.4l-2.4,3.4l2.4,3.4h-1.4l-1.6-2.5l-1.6,2.5h-1.4
			L139,121.7z"/>
	</g>
	<g id="XMLID_2_">
		<path id="XMLID_300_" class="st1" d="M17.7,98c0,2.8-0.7,5-2.1,6.5s-3.4,2.3-6,2.3s-4.6-0.8-6-2.3s-2.1-3.7-2.1-6.6s0.7-5,2.1-6.5
			s3.4-2.3,6.1-2.3s4.6,0.8,6,2.3S17.7,95.2,17.7,98z M5.2,98c0,1.9,0.4,3.4,1.1,4.3s1.8,1.5,3.3,1.5c2.9,0,4.3-1.9,4.3-5.8
			c0-3.9-1.4-5.8-4.3-5.8c-1.4,0-2.5,0.5-3.3,1.5S5.2,96.1,5.2,98z"/>
		<path id="XMLID_303_" class="st1" d="M34.3,94.8c0,1.8-0.6,3.3-1.7,4.2s-2.8,1.5-4.9,1.5h-1.6v6.1h-3.6V89.5h5.5
			c2.1,0,3.7,0.4,4.7,1.3S34.3,93,34.3,94.8z M26.1,97.5h1.2c1.1,0,2-0.2,2.5-0.7s0.8-1.1,0.8-1.9c0-0.9-0.2-1.5-0.7-1.9
			s-1.2-0.6-2.2-0.6h-1.7V97.5z"/>
		<path id="XMLID_306_" class="st1" d="M48.6,106.6h-9.9V89.5h9.9v3h-6.2v3.8h5.8v3h-5.8v4.4h6.2V106.6z"/>
		<path id="XMLID_308_" class="st1" d="M68.6,106.6H64l-7.5-13h-0.1c0.1,2.3,0.2,3.9,0.2,4.9v8.1h-3.2V89.5H58l7.4,12.8h0.1
			c-0.1-2.2-0.2-3.8-0.2-4.7v-8.1h3.3V106.6z"/>
		<path id="XMLID_310_" class="st1" d="M91.6,101.8c0,1.5-0.6,2.8-1.7,3.7s-2.7,1.3-4.6,1.3c-1.8,0-3.4-0.3-4.9-1v-3.4
			c1.2,0.5,2.1,0.9,2.9,1.1s1.5,0.3,2.2,0.3c0.8,0,1.4-0.2,1.8-0.5s0.6-0.8,0.6-1.4c0-0.3-0.1-0.6-0.3-0.9s-0.5-0.5-0.8-0.8
			s-1.1-0.6-2.2-1.2c-1-0.5-1.8-1-2.4-1.4s-0.9-1-1.3-1.6s-0.5-1.3-0.5-2.1c0-1.5,0.5-2.7,1.5-3.6s2.4-1.3,4.3-1.3
			c0.9,0,1.7,0.1,2.5,0.3s1.7,0.5,2.5,0.9l-1.2,2.8c-0.9-0.4-1.7-0.6-2.3-0.8s-1.2-0.2-1.8-0.2c-0.7,0-1.2,0.2-1.6,0.5
			s-0.6,0.7-0.6,1.3c0,0.3,0.1,0.6,0.2,0.8s0.4,0.5,0.7,0.7s1.1,0.6,2.3,1.2c1.6,0.8,2.7,1.5,3.3,2.3S91.6,100.7,91.6,101.8z"/>
		<path id="XMLID_312_" class="st1" d="M106.4,106.6l-1.2-4.1h-6.2l-1.2,4.1h-3.9l6-17.2h4.4l6.1,17.2H106.4z M104.3,99.5
			c-1.1-3.7-1.8-5.8-1.9-6.3s-0.2-0.9-0.3-1.1c-0.3,1-1,3.5-2.2,7.4H104.3z"/>
		<path id="XMLID_315_" class="st1" d="M128.9,106.6h-4.6l-7.5-13h-0.1c0.1,2.3,0.2,3.9,0.2,4.9v8.1h-3.2V89.5h4.6l7.4,12.8h0.1
			c-0.1-2.2-0.2-3.8-0.2-4.7v-8.1h3.3V106.6z"/>
		<path id="XMLID_317_" class="st1" d="M144.5,101.8c0,1.5-0.6,2.8-1.7,3.7s-2.7,1.3-4.6,1.3c-1.8,0-3.4-0.3-4.9-1v-3.4
			c1.2,0.5,2.1,0.9,2.9,1.1s1.5,0.3,2.2,0.3c0.8,0,1.4-0.2,1.8-0.5s0.6-0.8,0.6-1.4c0-0.3-0.1-0.6-0.3-0.9s-0.5-0.5-0.8-0.8
			s-1.1-0.6-2.2-1.2c-1-0.5-1.8-1-2.4-1.4s-0.9-1-1.3-1.6s-0.5-1.3-0.5-2.1c0-1.5,0.5-2.7,1.5-3.6s2.4-1.3,4.3-1.3
			c0.9,0,1.7,0.1,2.5,0.3s1.7,0.5,2.5,0.9l-1.2,2.8c-0.9-0.4-1.7-0.6-2.3-0.8s-1.2-0.2-1.8-0.2c-0.7,0-1.2,0.2-1.6,0.5
			s-0.6,0.7-0.6,1.3c0,0.3,0.1,0.6,0.2,0.8s0.4,0.5,0.7,0.7s1.1,0.6,2.3,1.2c1.6,0.8,2.7,1.5,3.3,2.3S144.5,100.7,144.5,101.8z"/>
		<path id="XMLID_319_" class="st1" d="M156.3,89.5h5.3c2.4,0,4.2,0.3,5.3,1s1.6,1.8,1.6,3.3c0,1-0.2,1.9-0.7,2.5s-1.1,1.1-1.9,1.2
			v0.1c1.1,0.2,1.9,0.7,2.3,1.4s0.7,1.5,0.7,2.6c0,1.6-0.6,2.8-1.7,3.7s-2.7,1.3-4.6,1.3h-6.4V89.5z M159.9,96.3h2.1
			c1,0,1.7-0.2,2.1-0.5s0.7-0.8,0.7-1.5c0-0.7-0.2-1.1-0.7-1.4s-1.2-0.4-2.3-0.4h-1.9V96.3z M159.9,99.1v4.5h2.4
			c1,0,1.7-0.2,2.2-0.6s0.7-1,0.7-1.8c0-1.4-1-2.1-3-2.1H159.9z"/>
		<path id="XMLID_323_" class="st1" d="M189.1,98c0,2.8-0.7,5-2.1,6.5s-3.4,2.3-6,2.3s-4.6-0.8-6-2.3s-2.1-3.7-2.1-6.6
			s0.7-5,2.1-6.5s3.4-2.3,6.1-2.3s4.6,0.8,6,2.3S189.1,95.2,189.1,98z M176.6,98c0,1.9,0.4,3.4,1.1,4.3s1.8,1.5,3.3,1.5
			c2.9,0,4.3-1.9,4.3-5.8c0-3.9-1.4-5.8-4.3-5.8c-1.4,0-2.5,0.5-3.3,1.5S176.6,96.1,176.6,98z"/>
		<path id="XMLID_326_" class="st1" d="M193.9,106.6V89.5h3.6v14.1h6.9v3H193.9z"/>
		<path id="XMLID_328_" class="st1" d="M222.9,97.9c0,2.8-0.8,5-2.4,6.5s-3.9,2.2-7,2.2h-4.9V89.5h5.4c2.8,0,5,0.7,6.5,2.2
			S222.9,95.2,222.9,97.9z M219.1,98c0-3.7-1.6-5.5-4.9-5.5h-1.9v11.2h1.6C217.3,103.6,219.1,101.7,219.1,98z"/>
	</g>
	<g id="XMLID_73_">
		<path id="XMLID_192_" class="st0" d="M0.9,202.6l1.2-0.3c0.1,1.3,1.2,1.9,2.4,1.9c1.2,0,1.9-0.5,1.9-1.7c0-2.4-4.8-1.8-4.8-4.7
			c0-1.5,1.3-2.5,2.8-2.5c1.2,0,2.2,0.5,2.8,1.5l-0.9,0.6c-0.4-0.7-1.1-1.1-1.9-1.1c-0.8,0-1.6,0.5-1.6,1.4c0,2.2,4.8,1.6,4.8,4.7
			c0,1.7-1.4,2.8-3.1,2.8C2.7,205.2,1.2,204.4,0.9,202.6z"/>
		<path id="XMLID_252_" class="st0" d="M10.1,201.1v-5.7h1.2v5.7c0,1.8,0.5,3,2.3,3s2.3-1.2,2.3-3v-5.7h1.2v5.6c0,2.5-1,4.2-3.5,4.2
			S10.1,203.5,10.1,201.1z"/>
		<path id="XMLID_254_" class="st0" d="M20.4,195.4h2.9c1.6,0,3.2,0.9,3.2,2.6c0,0.9-0.5,1.5-1.3,2c1,0.4,1.7,1.3,1.7,2.4
			c0,1.7-1.6,2.7-3.2,2.7h-3.4V195.4z M23.3,199.6c1,0,1.9-0.4,1.9-1.5c0-1-0.9-1.6-1.9-1.6h-1.7v3.1H23.3z M23.8,204
			c1,0,1.9-0.6,1.9-1.7c0-1.1-0.9-1.6-1.9-1.6h-2.2v3.3H23.8z"/>
		<path id="XMLID_258_" class="st0" d="M29.6,200.1h3.7v0.8h-3.7V200.1z"/>
		<path id="XMLID_260_" class="st0" d="M36.7,195.4h1.2v4.3h4.9v-4.3H44v9.7h-1.2v-4.3h-4.9v4.3h-1.2V195.4z"/>
		<path id="XMLID_262_" class="st0" d="M47.5,195.4H54v1h-5.3v3.3h4.6v1h-4.6v3.2H54v1.1h-6.5V195.4z"/>
		<path id="XMLID_264_" class="st0" d="M59.8,195.4h0.9l3.8,9.7h-1.3l-0.8-2.1h-4.3l-0.8,2.1H56L59.8,195.4z M62,201.9l-1.7-4.8
			l-1.7,4.8H62z"/>
		<path id="XMLID_267_" class="st0" d="M66.8,195.4h2.6c3.2,0,5,1.7,5,4.9c0,3.1-1.8,4.8-5.1,4.8h-2.6V195.4z M69.2,204
			c2.3,0,4-1.1,4-3.8c0-2.5-1.2-3.8-3.8-3.8H68v7.5H69.2z"/>
		<path id="XMLID_270_" class="st0" d="M77.5,195.4h1.2v8.6h4.3v1.1h-5.5V195.4z"/>
		<path id="XMLID_272_" class="st0" d="M85.4,195.4h1.2v9.7h-1.2V195.4z"/>
		<path id="XMLID_274_" class="st0" d="M90,195.4h1.6l4.3,8.2v-8.2h1.2v9.7h-1.6l-4.3-8.2v8.2H90V195.4z"/>
		<path id="XMLID_276_" class="st0" d="M100.6,195.4h6.5v1h-5.3v3.3h4.6v1h-4.6v3.2h5.3v1.1h-6.5V195.4z"/>
		<path id="XMLID_278_" class="st0" d="M117.4,201.3h-3.2v-0.8h3.2v-3.1h0.9v3.1h3.2v0.8h-3.2v3.1h-0.9V201.3z"/>
		<path id="XMLID_280_" class="st0" d="M131.2,196.4h-3.3v-1h7.9v1h-3.3v8.7h-1.2V196.4z"/>
		<path id="XMLID_282_" class="st0" d="M138,195.4h6.5v1h-5.3v3.3h4.6v1h-4.6v3.2h5.3v1.1H138V195.4z"/>
		<path id="XMLID_284_" class="st0" d="M149.8,200.3l-3.3-4.8h1.4l2.6,4l2.6-4h1.4l-3.3,4.8l3.3,4.8h-1.4l-2.6-3.9l-2.6,3.9h-1.4
			L149.8,200.3z"/>
		<path id="XMLID_286_" class="st0" d="M159.1,196.4h-3.3v-1h7.9v1h-3.3v8.7h-1.2V196.4z"/>
		<path id="XMLID_288_" class="st0" d="M169.1,200.4h9.6v0.8h-9.6V200.4z"/>
		<path id="XMLID_290_" class="st0" d="M186.9,197.8h-2.3v-1h1.2c0.8,0,1.2-0.5,1.2-1.2v-0.2h1.1v9.7h-1.2V197.8z"/>
		<path id="XMLID_292_" class="st0" d="M191.3,202c0-0.6,0.2-1.2,0.5-1.7l2.9-4.9h1.3l-2.2,3.5c0.3-0.1,0.5-0.1,0.8-0.1
			c1.8,0,3.3,1.3,3.3,3.1c0,1.7-1.4,3.2-3.3,3.2C192.8,205.2,191.3,203.8,191.3,202z M196.8,202c0-1.2-1-2.2-2.2-2.2
			c-1.2,0-2.2,1-2.2,2.2c0,1.2,1,2.2,2.2,2.2C195.8,204.2,196.8,203.2,196.8,202z"/>
		<path id="XMLID_295_" class="st0" d="M200.6,198.3h1.2v0.9c0.5-0.6,1.2-1,2.2-1c1.8,0,2.9,1.6,2.9,3.6c0,2-1,3.6-2.9,3.6
			c-1,0-1.7-0.4-2.2-1.1v3.9h-1.2V198.3z M205.6,201.7c0-1.4-0.6-2.6-2-2.6c-1.4,0-2,1.2-2,2.6c0,1.4,0.6,2.6,2,2.6
			C205,204.3,205.6,203.1,205.6,201.7z"/>
		<path id="XMLID_298_" class="st0" d="M210.9,201.7l-2.4-3.4h1.4l1.6,2.5l1.6-2.5h1.4l-2.4,3.4l2.4,3.4h-1.4l-1.6-2.5l-1.6,2.5
			h-1.4L210.9,201.7z"/>
	</g>
	<g id="XMLID_71_">
		<path id="XMLID_204_" class="st1" d="M17.2,178c0,2.7-0.7,4.9-2.1,6.5s-3.3,2.4-5.8,2.4c-2.5,0-4.5-0.8-5.8-2.3s-2.1-3.7-2.1-6.5
			c0-2.8,0.7-5,2.1-6.5s3.3-2.3,5.9-2.3c2.5,0,4.4,0.8,5.8,2.3S17.2,175.3,17.2,178z M3.6,178c0,2.3,0.5,4.1,1.5,5.3
			s2.4,1.8,4.3,1.8c1.9,0,3.3-0.6,4.3-1.8s1.5-3,1.5-5.3c0-2.3-0.5-4.1-1.4-5.2s-2.4-1.8-4.3-1.8c-1.9,0-3.3,0.6-4.3,1.8
			S3.6,175.7,3.6,178z"/>
		<path id="XMLID_207_" class="st1" d="M33.1,174.5c0,1.7-0.6,3.1-1.8,4s-2.9,1.4-5.1,1.4h-2v6.7h-2v-17.1h4.4
			C31,169.5,33.1,171.1,33.1,174.5z M24.2,178.2H26c1.8,0,3-0.3,3.8-0.9s1.2-1.5,1.2-2.7c0-1.1-0.4-2-1.1-2.5s-1.9-0.8-3.5-0.8h-2.2
			V178.2z"/>
		<path id="XMLID_212_" class="st1" d="M47.4,186.6h-9.6v-17.1h9.6v1.8h-7.6v5.5H47v1.8h-7.1v6.3h7.6V186.6z"/>
		<path id="XMLID_214_" class="st1" d="M65.8,186.6h-2.3l-9.4-14.4h-0.1c0.1,1.7,0.2,3.2,0.2,4.6v9.7h-1.8v-17.1h2.2l9.3,14.3h0.1
			c0-0.2-0.1-0.9-0.1-2s-0.1-2-0.1-2.5v-9.8h1.9V186.6z"/>
		<path id="XMLID_220_" class="st1" d="M88.8,182c0,1.5-0.5,2.7-1.6,3.5s-2.6,1.3-4.5,1.3c-2,0-3.6-0.3-4.7-0.8v-1.9
			c0.7,0.3,1.5,0.5,2.3,0.7s1.6,0.3,2.5,0.3c1.3,0,2.3-0.3,3-0.8s1-1.2,1-2.1c0-0.6-0.1-1.1-0.4-1.5s-0.6-0.7-1.2-1
			s-1.4-0.7-2.5-1.1c-1.6-0.6-2.7-1.2-3.4-2s-1-1.8-1-3.1c0-1.3,0.5-2.4,1.5-3.2s2.3-1.2,3.9-1.2c1.7,0,3.3,0.3,4.7,0.9l-0.6,1.7
			c-1.4-0.6-2.8-0.9-4.1-0.9c-1.1,0-1.9,0.2-2.5,0.7s-0.9,1.1-0.9,1.9c0,0.6,0.1,1.1,0.3,1.5s0.6,0.7,1.1,1s1.3,0.7,2.4,1
			c1.8,0.6,3,1.3,3.7,2.1S88.8,180.9,88.8,182z"/>
		<path id="XMLID_222_" class="st1" d="M104.3,186.6l-2.1-5.4h-6.9l-2.1,5.4h-2l6.8-17.2h1.7l6.7,17.2H104.3z M101.6,179.4l-2-5.3
			c-0.3-0.7-0.5-1.5-0.8-2.5c-0.2,0.8-0.4,1.6-0.7,2.5l-2,5.3H101.6z"/>
		<path id="XMLID_225_" class="st1" d="M123.3,186.6H121l-9.4-14.4h-0.1c0.1,1.7,0.2,3.2,0.2,4.6v9.7h-1.8v-17.1h2.2l9.3,14.3h0.1
			c0-0.2-0.1-0.9-0.1-2s-0.1-2-0.1-2.5v-9.8h1.9V186.6z"/>
		<path id="XMLID_227_" class="st1" d="M138.9,182c0,1.5-0.5,2.7-1.6,3.5s-2.6,1.3-4.5,1.3c-2,0-3.6-0.3-4.7-0.8v-1.9
			c0.7,0.3,1.5,0.5,2.3,0.7s1.6,0.3,2.5,0.3c1.3,0,2.3-0.3,3-0.8s1-1.2,1-2.1c0-0.6-0.1-1.1-0.4-1.5s-0.6-0.7-1.2-1
			s-1.4-0.7-2.5-1.1c-1.6-0.6-2.7-1.2-3.4-2s-1-1.8-1-3.1c0-1.3,0.5-2.4,1.5-3.2s2.3-1.2,3.9-1.2c1.7,0,3.3,0.3,4.7,0.9l-0.6,1.7
			c-1.4-0.6-2.8-0.9-4.1-0.9c-1.1,0-1.9,0.2-2.5,0.7s-0.9,1.1-0.9,1.9c0,0.6,0.1,1.1,0.3,1.5s0.6,0.7,1.1,1s1.3,0.7,2.4,1
			c1.8,0.6,3,1.3,3.7,2.1S138.9,180.9,138.9,182z"/>
		<path id="XMLID_229_" class="st1" d="M157.2,169.5l-6.4,17.1h-1.9l6.4-17.1H157.2z"/>
		<path id="XMLID_231_" class="st1" d="M183.3,178c0,2.7-0.7,4.9-2.1,6.5s-3.3,2.4-5.8,2.4c-2.5,0-4.5-0.8-5.8-2.3s-2.1-3.7-2.1-6.5
			c0-2.8,0.7-5,2.1-6.5s3.3-2.3,5.9-2.3c2.5,0,4.4,0.8,5.8,2.3S183.3,175.3,183.3,178z M169.7,178c0,2.3,0.5,4.1,1.5,5.3
			s2.4,1.8,4.3,1.8c1.9,0,3.3-0.6,4.3-1.8s1.5-3,1.5-5.3c0-2.3-0.5-4.1-1.4-5.2s-2.4-1.8-4.3-1.8c-1.9,0-3.3,0.6-4.3,1.8
			S169.7,175.7,169.7,178z"/>
		<path id="XMLID_234_" class="st1" d="M194.1,186.8c-0.8,0-1.6-0.2-2.3-0.5s-1.3-0.8-1.7-1.4h-0.1c0.1,0.8,0.1,1.5,0.1,2.1v5.3
			h-1.9v-18.6h1.6l0.3,1.8h0.1c0.5-0.7,1.1-1.2,1.7-1.5s1.4-0.5,2.3-0.5c1.7,0,3,0.6,3.9,1.7s1.4,2.8,1.4,4.9c0,2.1-0.5,3.7-1.4,4.9
			S195.7,186.8,194.1,186.8z M193.8,175.2c-1.3,0-2.3,0.4-2.8,1.1s-0.9,1.9-0.9,3.5v0.4c0,1.8,0.3,3.1,0.9,3.9s1.6,1.2,2.9,1.2
			c1.1,0,2-0.4,2.6-1.3s0.9-2.1,0.9-3.7c0-1.6-0.3-2.8-0.9-3.7S194.9,175.2,193.8,175.2z"/>
		<path id="XMLID_237_" class="st1" d="M209.4,186.8c-1.9,0-3.4-0.6-4.5-1.7s-1.6-2.8-1.6-4.8c0-2.1,0.5-3.7,1.5-4.9
			s2.4-1.8,4.1-1.8c1.6,0,2.9,0.5,3.8,1.6s1.4,2.5,1.4,4.2v1.2h-8.8c0,1.5,0.4,2.7,1.1,3.4s1.7,1.2,3.1,1.2c1.4,0,2.8-0.3,4.1-0.9
			v1.7c-0.7,0.3-1.3,0.5-2,0.6S210.3,186.8,209.4,186.8z M208.9,175.2c-1,0-1.9,0.3-2.5,1s-1,1.6-1.1,2.8h6.7c0-1.2-0.3-2.2-0.8-2.8
			S209.9,175.2,208.9,175.2z"/>
		<path id="XMLID_240_" class="st1" d="M227.4,186.6v-8.3c0-1-0.2-1.8-0.7-2.3s-1.2-0.8-2.2-0.8c-1.3,0-2.3,0.4-3,1.1
			s-0.9,1.9-0.9,3.6v6.7h-1.9v-12.8h1.6l0.3,1.8h0.1c0.4-0.6,1-1.1,1.7-1.5s1.5-0.5,2.4-0.5c1.5,0,2.7,0.4,3.5,1.1s1.2,1.9,1.2,3.6
			v8.4H227.4z"/>
		<path id="XMLID_242_" class="st1" d="M252,182c0,1.5-0.5,2.7-1.6,3.5s-2.6,1.3-4.5,1.3c-2,0-3.6-0.3-4.7-0.8v-1.9
			c0.7,0.3,1.5,0.5,2.3,0.7s1.6,0.3,2.5,0.3c1.3,0,2.3-0.3,3-0.8s1-1.2,1-2.1c0-0.6-0.1-1.1-0.4-1.5s-0.6-0.7-1.2-1
			s-1.4-0.7-2.5-1.1c-1.6-0.6-2.7-1.2-3.4-2s-1-1.8-1-3.1c0-1.3,0.5-2.4,1.5-3.2s2.3-1.2,3.9-1.2c1.7,0,3.3,0.3,4.7,0.9l-0.6,1.7
			c-1.4-0.6-2.8-0.9-4.1-0.9c-1.1,0-1.9,0.2-2.5,0.7s-0.9,1.1-0.9,1.9c0,0.6,0.1,1.1,0.3,1.5s0.6,0.7,1.1,1s1.3,0.7,2.4,1
			c1.8,0.6,3,1.3,3.7,2.1S252,180.9,252,182z"/>
		<path id="XMLID_244_" class="st1" d="M264.3,186.6l-0.4-1.8h-0.1c-0.6,0.8-1.3,1.3-1.9,1.6s-1.4,0.4-2.4,0.4c-1.3,0-2.3-0.3-3-1
			s-1.1-1.6-1.1-2.8c0-2.6,2.1-4,6.2-4.1l2.2-0.1v-0.8c0-1-0.2-1.8-0.7-2.2s-1.1-0.7-2.1-0.7c-1.1,0-2.3,0.3-3.6,1l-0.6-1.5
			c0.6-0.3,1.3-0.6,2.1-0.8s1.5-0.3,2.3-0.3c1.5,0,2.7,0.3,3.4,1s1.1,1.8,1.1,3.3v8.8H264.3z M259.9,185.2c1.2,0,2.2-0.3,2.9-1
			s1-1.6,1-2.8v-1.2l-1.9,0.1c-1.5,0.1-2.7,0.3-3.3,0.7s-1,1.1-1,2c0,0.7,0.2,1.2,0.6,1.6S259.1,185.2,259.9,185.2z"/>
		<path id="XMLID_247_" class="st1" d="M279.7,186.6v-8.3c0-1-0.2-1.8-0.7-2.3s-1.2-0.8-2.2-0.8c-1.3,0-2.3,0.4-3,1.1
			s-0.9,1.9-0.9,3.6v6.7h-1.9v-12.8h1.6l0.3,1.8h0.1c0.4-0.6,1-1.1,1.7-1.5s1.5-0.5,2.4-0.5c1.5,0,2.7,0.4,3.5,1.1s1.2,1.9,1.2,3.6
			v8.4H279.7z"/>
		<path id="XMLID_249_" class="st1" d="M295.1,183.1c0,1.2-0.4,2.1-1.3,2.8s-2.1,1-3.8,1c-1.7,0-3-0.3-4-0.8v-1.8
			c0.6,0.3,1.3,0.6,2,0.7s1.4,0.3,2,0.3c1,0,1.8-0.2,2.3-0.5s0.8-0.8,0.8-1.5c0-0.5-0.2-0.9-0.7-1.3s-1.3-0.8-2.5-1.3
			c-1.2-0.4-2-0.8-2.5-1.2s-0.9-0.7-1.1-1.1s-0.4-0.9-0.4-1.5c0-1,0.4-1.9,1.3-2.5s2-0.9,3.5-0.9c1.4,0,2.7,0.3,4.1,0.8l-0.7,1.6
			c-1.3-0.5-2.5-0.8-3.5-0.8c-0.9,0-1.6,0.1-2.1,0.4s-0.7,0.7-0.7,1.2c0,0.3,0.1,0.6,0.3,0.9s0.5,0.5,0.8,0.7s1.1,0.5,2.2,0.9
			c1.5,0.6,2.6,1.1,3.1,1.7S295.1,182.2,295.1,183.1z"/>
	</g>
</g>
<g id="XMLID_193_">
	
		<text id="XMLID_202_" transform="matrix(1.0308 0 0 1 416.3164 45.1064)" class="st0" style="font-family:'HKGrotesk-Regular'; font-size:14px;">HEADLINE — 40px</text>
	<rect id="XMLID_201_" x="416" y="3.4" style="fill:none;" width="237.5" height="26.6"/>
	
		<text id="XMLID_200_" transform="matrix(1 0 0 1 416 20.6401)" class="st1" style="font-family:'Bungee-Regular'; font-size:24px; letter-spacing:1;">Bungee</text>
	
		<text id="XMLID_199_" transform="matrix(1.0308 0 0 1 416.3164 125.1064)" class="st0" style="font-family:'HKGrotesk-Regular'; font-size:14px;">MENU ITEMS — 16px </text>
	<rect id="XMLID_198_" x="416" y="88.4" style="fill:none;" width="325" height="26.6"/>
	
		<text id="XMLID_197_" transform="matrix(1 0 0 1 416 106.6001)" class="st1" style="font-family:'OpenSans-Bold'; font-size:24px; letter-spacing:1;">OPEN SANS BOLD</text>
	
		<text id="XMLID_196_" transform="matrix(1.0308 0 0 1 416.3164 205.1064)" class="st0" style="font-family:'HKGrotesk-Regular'; font-size:14px;">SUB-HEADLINE + TEXT — 16px </text>
	<rect id="XMLID_195_" x="416" y="168.4" style="fill:none;" width="325" height="26.6"/>
	
		<text id="XMLID_194_" transform="matrix(1 0 0 1 416 186.6001)" class="st1" style="font-family:'OpenSans'; font-size:24px; letter-spacing:1;">OPEN SANS / Open Sans</text>
</g>
</svg>
