<?xml version="1.0" encoding="utf-8"?>
<!-- Generator: Adobe Illustrator 21.0.0, SVG Export Plug-In . SVG Version: 6.00 Build 0)  -->
<svg version="1.1" id="Layer_1" xmlns="http://www.w3.org/2000/svg" xmlns:xlink="http://www.w3.org/1999/xlink" x="0px" y="0px"
	 viewBox="0 0 325 330" style="enable-background:new 0 0 325 330;" xml:space="preserve">
<style type="text/css">
	.st0{fill:#FFFFFF;stroke:#000000;stroke-miterlimit:10;}
	.st1{fill:#808080;}
	.st2{fill:#231F20;}
</style>
<circle class="st0" cx="98" cy="-213.5" r="0"/>
<g>
	<path class="st1" d="M2.2,40h6.5v1H3.4v3.3h4.6v1H3.4v4.3H2.2V40z"/>
	<path class="st1" d="M11,40h6.5v1h-5.3v3.3h4.6v1h-4.6v3.2h5.3v1.1H11V40z"/>
	<path class="st1" d="M23.3,40h0.9l3.8,9.7h-1.3l-0.8-2.1h-4.3l-0.8,2.1h-1.3L23.3,40z M25.5,46.5l-1.7-4.8L22,46.5H25.5z"/>
	<path class="st1" d="M31.7,41h-3.3v-1h7.9v1h-3.3v8.7h-1.2V41z"/>
	<path class="st1" d="M38.3,45.7V40h1.2v5.7c0,1.8,0.5,3,2.3,3s2.3-1.2,2.3-3V40h1.2v5.6c0,2.5-1,4.2-3.5,4.2S38.3,48.1,38.3,45.7z"
		/>
	<path class="st1" d="M48.5,40h2.9c1.8,0,3.2,1,3.2,2.7c0,1.3-0.8,2.2-2.1,2.5l2.7,4.5h-1.4l-2.6-4.3h-1.5v4.3h-1.2V40z M51.6,44.3
		c1-0.1,1.8-0.6,1.8-1.6c0-1.1-0.8-1.7-1.9-1.7h-1.7v3.2H51.6z"/>
	<path class="st1" d="M57.7,40h6.5v1h-5.3v3.3h4.6v1h-4.6v3.2h5.3v1.1h-6.5V40z"/>
	<path class="st1" d="M67.1,40h2.6c3.2,0,5,1.7,5,4.9c0,3.1-1.8,4.8-5.1,4.8h-2.6V40z M69.5,48.6c2.3,0,4-1.1,4-3.8
		c0-2.5-1.2-3.8-3.8-3.8h-1.4v7.5H69.5z"/>
	<path class="st1" d="M85.2,40h0.9l3.8,9.7h-1.3l-0.8-2.1h-4.3l-0.8,2.1h-1.3L85.2,40z M87.4,46.5l-1.7-4.8l-1.7,4.8H87.4z"/>
	<path class="st1" d="M92.3,40h2.9c1.8,0,3.2,1,3.2,2.7c0,1.3-0.8,2.2-2.1,2.5l2.7,4.5h-1.4l-2.6-4.3h-1.5v4.3h-1.2V40z M95.4,44.3
		c1-0.1,1.8-0.6,1.8-1.6c0-1.1-0.8-1.7-1.9-1.7h-1.7v3.2H95.4z"/>
	<path class="st1" d="M103.6,41h-3.3v-1h7.9v1h-3.3v8.7h-1.2V41z"/>
	<path class="st1" d="M110.3,40h1.2v9.7h-1.2V40z"/>
	<path class="st1" d="M114.4,44.8c0-2.7,1.4-5,4.5-5c1.9,0,3.3,0.9,4.1,2.6l-1.1,0.4c-0.4-1.4-1.6-2-3-2c-2.3,0-3.3,1.8-3.3,3.8
		c0,2.1,1,4,3.3,4c1.4,0,2.4-0.6,3-2l1.1,0.4c-0.8,1.7-2.2,2.6-4.1,2.6C115.9,49.8,114.4,47.5,114.4,44.8z"/>
	<path class="st1" d="M125.8,40h1.2v8.6h4.3v1.1h-5.5V40z"/>
	<path class="st1" d="M133.8,40h6.5v1h-5.3v3.3h4.6v1h-4.6v3.2h5.3v1.1h-6.5V40z"/>
	<path class="st1" d="M148,40h1.2v4.3h4.9V40h1.2v9.7h-1.2v-4.3h-4.9v4.3H148V40z"/>
	<path class="st1" d="M158.9,40h6.5v1h-5.3v3.3h4.6v1h-4.6v3.2h5.3v1.1h-6.5V40z"/>
	<path class="st1" d="M171.1,40h0.9l3.8,9.7h-1.3l-0.8-2.1h-4.3l-0.8,2.1h-1.3L171.1,40z M173.3,46.5l-1.7-4.8l-1.7,4.8H173.3z"/>
	<path class="st1" d="M178.2,40h2.6c3.2,0,5,1.7,5,4.9c0,3.1-1.8,4.8-5.1,4.8h-2.6V40z M180.6,48.6c2.3,0,4-1.1,4-3.8
		c0-2.5-1.2-3.8-3.8-3.8h-1.4v7.5H180.6z"/>
	<path class="st1" d="M188.8,40h1.2v8.6h4.3v1.1h-5.5V40z"/>
	<path class="st1" d="M196.8,40h1.2v9.7h-1.2V40z"/>
	<path class="st1" d="M201.4,40h1.6l4.3,8.2V40h1.2v9.7h-1.6l-4.3-8.2v8.2h-1.2V40z"/>
	<path class="st1" d="M212,40h6.5v1h-5.3v3.3h4.6v1h-4.6v3.2h5.3v1.1H212V40z"/>
	<path class="st1" d="M224.7,44.9h9.6v0.8h-9.6V44.9z"/>
	<path class="st1" d="M244.6,47.1H240v-0.7l4.7-6.4h1.1v6.1h1.6v1h-1.6v2.5h-1.2V47.1z M244.6,46.1v-4.3l-3.2,4.3H244.6z"/>
	<path class="st1" d="M249.1,44.8c0-2.2,0.9-5,3.7-5c2.5,0,3.7,2.5,3.7,5c0,2.5-1.2,4.9-3.6,4.9C250,49.8,249.1,46.9,249.1,44.8z
		 M255.2,44.8c0-1.7-0.6-3.9-2.5-3.9s-2.5,2.2-2.5,3.9c0,1.7,0.6,3.9,2.5,3.9C254.7,48.7,255.2,46.4,255.2,44.8z"/>
	<path class="st1" d="M259.1,42.8h1.2v0.9c0.5-0.6,1.2-1.1,2.2-1.1c1.8,0,2.9,1.6,2.9,3.6c0,2-1,3.6-2.9,3.6c-1,0-1.7-0.4-2.2-1.1
		v3.9h-1.2V42.8z M264.1,46.2c0-1.4-0.6-2.6-2-2.6c-1.4,0-2,1.2-2,2.6c0,1.4,0.6,2.6,2,2.6C263.5,48.8,264.1,47.6,264.1,46.2z"/>
	<path class="st1" d="M269.4,46.2l-2.4-3.4h1.4l1.6,2.5l1.6-2.5h1.4l-2.4,3.4l2.4,3.4h-1.4l-1.6-2.5l-1.6,2.5H267L269.4,46.2z"/>
</g>
<g>
	<path class="st2" d="M1.6,23.4l1-0.1c0.6,0,0.8-0.4,1-1.2L6,11.1c0.2-0.8,0.2-1.2-0.4-1.2L4.5,9.8L4.7,9h6.9l-0.2,0.8l-1,0.1
		c-0.6,0-0.8,0.4-1,1.2l-1,4.6h5.7l1-4.6c0.2-0.8,0.2-1.2-0.4-1.2l-1.1-0.1L13.8,9h6.9l-0.2,0.8l-1,0.1c-0.6,0-0.8,0.4-1,1.2
		l-2.4,10.9c-0.2,0.8-0.2,1.2,0.4,1.2l1.1,0.1l-0.2,0.8h-6.9l0.2-0.8l1-0.1c0.6,0,0.8-0.4,1-1.2l1.2-5.3H8.1l-1.2,5.3
		c-0.2,0.8-0.2,1.2,0.4,1.2l1.1,0.1l-0.2,0.8H1.4L1.6,23.4z"/>
	<path class="st2" d="M20.3,23.4l1-0.1c0.6,0,0.8-0.4,1-1.2l2.4-10.9c0.2-0.8,0.2-1.2-0.4-1.2l-1.1-0.1L23.4,9h11.7l-0.9,4.1h-0.8
		l-0.1-1.2c-0.1-1-0.6-1.8-2.5-1.8h-1.5c-0.8,0-0.9,0.1-1.1,0.7l-1.1,5h2.1c1.4,0,1.7-0.4,2.4-2h0.8l-1.1,5h-0.8
		c0.1-1.4-0.2-2-1.6-2h-2.1l-1.2,5.2c-0.3,1.2,0.4,1.3,2.4,1.3c1.7,0,2.8-0.5,3.9-2.4l0.7-1.2h0.8l-1.3,4.6H20.1L20.3,23.4z"/>
	<path class="st2" d="M39.2,11.1c0.2-0.8,0.2-1.2-0.4-1.2l-1.1-0.1L37.9,9h6.9l-0.2,0.8l-1,0.1c-0.6,0-0.8,0.4-1,1.2l-1.8,7.9
		c-0.7,3.3,0.4,4.4,2.1,4.4c1.9,0,2.9-1.6,3.7-5l1.7-7.4c0.2-0.8,0.2-1.2-0.4-1.2l-1.1-0.1L47,9h6.9l-0.2,0.8l-1,0.1
		c-0.6,0-0.8,0.4-1,1.2L50,18.6c-0.5,2.4-1.4,3.9-2.5,4.7c-1.2,0.9-2.9,1.2-4.6,1.2c-2.1,0-3.9-0.5-4.8-1.5c-0.8-0.9-1-2.3-0.6-4.1
		L39.2,11.1z"/>
	<path class="st2" d="M53.3,23.4l1-0.1c0.6,0,0.8-0.4,1-1.2l2.4-10.9c0.2-0.8,0.2-1.2-0.4-1.2l-1.1-0.1L56.3,9h6.2
		c1.7,0,3.3,0.2,4.2,0.8c1,0.6,1.5,1.5,1.5,2.9c0,2.3-1.9,3.9-4.7,4v0c2.2,0.5,2.3,1.9,2.2,3.7c-0.1,1.1,0.1,1.8,0.4,2.4
		c0.2,0.4,0.8,0.5,1.3,0.6l-0.2,0.8h-2.1c-1.5,0-2.4-0.6-2.7-1.8c-0.3-1.5,0.1-3.2-0.1-4c-0.2-0.8-0.5-1.2-1.6-1.2h-1.3l-1.1,4.8
		c-0.2,0.8-0.2,1.2,0.4,1.2l1.1,0.1l-0.2,0.8h-6.9L53.3,23.4z M61.3,16.2c1.7,0,3.5-1.4,3.5-4c0-1.5-0.8-2.3-2.3-2.3
		c-1.1,0-1.2,0.2-1.3,0.8l-1.2,5.4H61.3z"/>
	<path class="st2" d="M69.3,23.4l1-0.1c0.6,0,0.8-0.4,1-1.2l2.4-10.9c0.2-0.8,0.2-1.2-0.4-1.2l-1.1-0.1L72.4,9h6.9l-0.2,0.8l-1,0.1
		c-0.6,0-0.8,0.4-1,1.2l-2.4,10.9c-0.2,0.8-0.2,1.2,0.4,1.2l1.1,0.1L76,24.2h-6.9L69.3,23.4z"/>
	<path class="st2" d="M79.8,18.8h0.8c0.3,3.1,2.1,4.8,3.8,4.8c1.8,0,2.6-1.2,2.6-2.6c0-1.5-1-2.5-2.3-3.3c-2-1.1-3.5-2.4-3.5-4.4
		c0-1.9,1.2-4.6,5.6-4.6c1.2,0,3.1,0.3,4.2,1.2l-0.7,3.5h-0.8c-0.1-2.6-1.2-3.7-2.8-3.7c-1.6,0-2.4,1.2-2.4,2.4
		c0,1.3,1.2,2.2,2.5,2.9c2.2,1.2,3.3,2.6,3.3,4.6c0,2.8-1.8,4.9-5.8,5c-1.7,0-4-0.5-5.1-1.9L79.8,18.8z"/>
	<path class="st2" d="M94.8,9h12.9l-0.9,4.2h-0.8l-0.1-1.3c-0.1-1.1-0.6-1.8-2-1.8h-1.1L100,22.1c-0.2,0.8-0.2,1.2,0.4,1.2l1.4,0.1
		l-0.2,0.8h-7.5l0.2-0.8l1.3-0.1c0.6,0,0.8-0.4,1-1.2L99.4,10h-1.1c-1.5,0-2.3,0.7-2.9,1.8l-0.7,1.3h-0.8L94.8,9z"/>
	<path class="st2" d="M106.8,23.4l1-0.1c0.6,0,0.8-0.4,1-1.2l2.4-10.9c0.2-0.8,0.2-1.2-0.4-1.2l-1.1-0.1l0.2-0.8h6.9l-0.2,0.8
		l-1,0.1c-0.6,0-0.8,0.4-1,1.2l-2.4,10.9c-0.2,0.8-0.2,1.2,0.4,1.2l1.1,0.1l-0.2,0.8h-6.9L106.8,23.4z"/>
	<path class="st2" d="M119.3,12.7c1.5-2.4,4-4,8.3-4c1.2,0,3.6,0.2,4.9,1.1l-0.9,3.9h-0.8c0-2-0.6-4-3.1-4c-4.5,0-6.1,5.5-6.1,9.4
		c0,3.1,1.4,4.5,3.4,4.5c2.5,0,3.7-1.9,5.1-4.2h0.8l-1.2,4.3c-1.4,0.7-3.2,0.9-4.7,0.9c-6.4,0-7.1-4.4-7.1-6.4
		C117.8,16.6,118.1,14.4,119.3,12.7z"/>
	<path class="st2" d="M130.8,23.4l0.6-0.1c0.7-0.1,1-0.3,1.4-1c0.6-1,2-3.4,3.3-5.8l4.3-7.5h2.6l0.7,7c0.2,1.6,0.5,4.8,0.7,6.4
		c0.1,0.6,0.2,0.9,0.7,1l0.9,0.1l-0.2,0.8h-6.6l0.2-0.8l1.1-0.1c0.4,0,0.5-0.3,0.5-0.8l-0.3-3.7h-4.4c-0.7,1.3-1.3,2.5-1.9,3.7
		c-0.2,0.4-0.2,0.8,0.3,0.8l1.2,0.1l-0.2,0.8h-5.1L130.8,23.4z M140.6,17.7l-0.5-5.7h0c-0.4,0.6-2.9,5.2-3.1,5.7H140.6z"/>
	<path class="st2" d="M153,23.4l1-0.1c0.6,0,0.8-0.4,1-1.2l2.4-10.9c0.2-0.8,0.2-1.2-0.4-1.2l-1.1-0.1l0.2-0.8h5.9
		c2.4,0,3.9,0.3,4.7,1c0.8,0.6,1.2,1.5,1.2,2.5c0,1.8-1.3,3.4-4.2,3.7v0c1.5,0.3,3.3,1.3,3.3,3.7c0,1.4-0.7,2.6-1.8,3.3
		c-1.2,0.8-3,1-5.1,1h-7.3L153,23.4z M159.7,23.2c2.6,0,3.7-1.8,3.7-3.8c0-1.7-1-2.7-2.9-2.7h-0.9l-1.1,5.1
		C158.3,22.7,158.4,23.2,159.7,23.2z M160.8,15.7c2.2,0,3.7-1.3,3.7-3.4c0-1.6-1-2.2-2.4-2.2c-1,0-1.1,0.2-1.2,0.8l-1.1,4.8H160.8z"
		/>
	<path class="st2" d="M171.8,13c1.2-2.3,3.4-4.4,7.4-4.4c3.7,0,6.5,1.9,6.5,6.3c0,1.2-0.2,3.2-1.3,5.3c-1.2,2.2-3.2,4.2-7.1,4.2
		c-4.4,0-6.8-2.4-6.8-6.1C170.5,17.3,170.6,15.3,171.8,13z M176.9,23.5c3.3,0,5.2-6.2,5.2-10.5c0-1.9-0.6-3.4-2.6-3.4
		c-3.6,0-5.4,6.9-5.4,10.4C174.1,22.3,175,23.5,176.9,23.5z"/>
	<path class="st2" d="M186.9,23.4l1-0.1c0.6-0.1,0.8-0.4,1-1.2l2.4-10.9c0.2-0.8,0.2-1.2-0.4-1.2l-1.1-0.1L190,9h6.9l-0.2,0.8
		l-1,0.1c-0.6,0.1-0.8,0.4-1,1.2L192.3,22c-0.2,1.1,0.4,1.2,2,1.2s2.7-0.5,3.8-2.4l0.7-1.1h0.8l-1.3,4.4h-11.6L186.9,23.4z"/>
	<path class="st2" d="M200.9,23.4l1-0.1c0.6,0,0.8-0.4,1-1.2l2.4-10.9c0.2-0.8,0.2-1.2-0.4-1.2l-1.1-0.1L204,9h6.1
		c2.6,0,4.5,0.4,5.8,1.4c1.3,1,2,2.6,2,4.9c0,0.9-0.3,3-1.5,4.9c-1.5,2.4-3.8,4-8.6,4h-7.1L200.9,23.4z M207.8,23.2
		c5.1,0,6.5-6.4,6.5-9c0-2.1-0.5-4.2-3.7-4.2c-1.4,0-1.7,0.2-1.9,0.9l-2.5,11.2C206.1,23,206.7,23.2,207.8,23.2z"/>
	<path class="st2" d="M224.8,23.4l1-0.1c0.6,0,0.8-0.4,1-1.2l2.4-10.9c0.2-0.8,0.2-1.2-0.4-1.2l-1.1-0.1l0.2-0.8h6.9l-0.2,0.8
		l-1,0.1c-0.6,0-0.8,0.4-1,1.2l-2.4,10.9c-0.2,0.8-0.2,1.2,0.4,1.2l1.1,0.1l-0.2,0.8h-6.9L224.8,23.4z"/>
	<path class="st2" d="M237,9H250l-0.9,4.2h-0.8l-0.1-1.3c-0.1-1.1-0.6-1.8-2-1.8H245l-2.7,12.1c-0.2,0.8-0.2,1.2,0.4,1.2l1.4,0.1
		l-0.2,0.8h-7.5l0.2-0.8l1.3-0.1c0.6,0,0.8-0.4,1-1.2l2.7-12.1h-1.1c-1.5,0-2.3,0.7-2.9,1.8l-0.7,1.3h-0.8L237,9z"/>
	<path class="st2" d="M246.7,23.4l0.6-0.1c0.7-0.1,1-0.3,1.4-1c0.6-1,2-3.4,3.3-5.8l4.3-7.5h2.6l0.7,7c0.2,1.6,0.5,4.8,0.7,6.4
		c0.1,0.6,0.2,0.9,0.7,1l0.9,0.1l-0.2,0.8h-6.6l0.2-0.8l1.1-0.1c0.4,0,0.5-0.3,0.5-0.8l-0.3-3.7h-4.4c-0.7,1.3-1.3,2.5-1.9,3.7
		c-0.2,0.4-0.2,0.8,0.3,0.8l1.2,0.1l-0.2,0.8h-5.1L246.7,23.4z M256.5,17.7L256,12h0c-0.4,0.6-2.9,5.2-3.1,5.7H256.5z"/>
	<path class="st2" d="M263.2,23.4l1-0.1c0.6-0.1,0.8-0.4,1-1.2l2.4-10.9c0.2-0.8,0.2-1.2-0.4-1.2l-1.1-0.1l0.2-0.8h6.9l-0.2,0.8
		l-1,0.1c-0.6,0.1-0.8,0.4-1,1.2L268.6,22c-0.2,1.1,0.4,1.2,2,1.2s2.7-0.5,3.8-2.4l0.7-1.1h0.8l-1.3,4.4H263L263.2,23.4z"/>
	<path class="st2" d="M277.2,23.4l1-0.1c0.6,0,0.8-0.4,1-1.2l2.4-10.9c0.2-0.8,0.2-1.2-0.4-1.2L280,9.8l0.2-0.8h6.9l-0.2,0.8l-1,0.1
		c-0.6,0-0.8,0.4-1,1.2l-2.4,10.9c-0.2,0.8-0.2,1.2,0.4,1.2l1.1,0.1l-0.2,0.8H277L277.2,23.4z"/>
	<path class="st2" d="M289.7,12.7c1.5-2.4,4-4,8.3-4c1.2,0,3.6,0.2,4.9,1.1l-0.9,3.9h-0.8c0-2-0.6-4-3.1-4c-4.5,0-6.1,5.5-6.1,9.4
		c0,3.1,1.4,4.5,3.4,4.5c2.5,0,3.7-1.9,5.1-4.2h0.8l-1.2,4.3c-1.4,0.7-3.2,0.9-4.7,0.9c-6.4,0-7.1-4.4-7.1-6.4
		C288.1,16.6,288.5,14.4,289.7,12.7z"/>
</g>
<g>
	<path class="st1" d="M5,120h0.9l3.8,9.7H8.3l-0.8-2.1H3.3l-0.8,2.1H1.2L5,120z M7.2,126.5l-1.7-4.8l-1.7,4.8H7.2z"/>
	<path class="st1" d="M12.1,120H15c1.8,0,3.2,1,3.2,2.7c0,1.3-0.8,2.2-2.1,2.5l2.7,4.5h-1.4l-2.6-4.3h-1.5v4.3h-1.2V120z
		 M15.2,124.3c1-0.1,1.8-0.6,1.8-1.6c0-1.1-0.8-1.7-1.9-1.7h-1.7v3.2H15.2z"/>
	<path class="st1" d="M23.3,121H20v-1h7.9v1h-3.3v8.7h-1.2V121z"/>
	<path class="st1" d="M30.1,120h1.2v9.7h-1.2V120z"/>
	<path class="st1" d="M34.2,124.8c0-2.7,1.4-5,4.5-5c1.9,0,3.3,0.9,4.1,2.6l-1.1,0.4c-0.4-1.4-1.6-2-3-2c-2.3,0-3.3,1.8-3.3,3.8
		c0,2.1,1,4,3.3,4c1.4,0,2.4-0.6,3-2l1.1,0.4c-0.8,1.7-2.2,2.6-4.1,2.6C35.6,129.8,34.2,127.5,34.2,124.8z"/>
	<path class="st1" d="M45.6,120h1.2v8.6H51v1.1h-5.5V120z"/>
	<path class="st1" d="M53.6,120h6.5v1h-5.3v3.3h4.6v1h-4.6v3.2h5.3v1.1h-6.5V120z"/>
	<path class="st1" d="M67.8,120H69v4.3H74V120h1.2v9.7H74v-4.3H69v4.3h-1.2V120z"/>
	<path class="st1" d="M78.6,120h6.5v1h-5.3v3.3h4.6v1h-4.6v3.2h5.3v1.1h-6.5V120z"/>
	<path class="st1" d="M90.9,120h0.9l3.8,9.7h-1.3l-0.8-2.1h-4.3l-0.8,2.1h-1.3L90.9,120z M93.1,126.5l-1.7-4.8l-1.7,4.8H93.1z"/>
	<path class="st1" d="M98,120h2.6c3.2,0,5,1.7,5,4.9c0,3.1-1.8,4.8-5.1,4.8H98V120z M100.4,128.6c2.3,0,4-1.1,4-3.8
		c0-2.5-1.2-3.8-3.8-3.8h-1.4v7.5H100.4z"/>
	<path class="st1" d="M108.6,120h1.2v8.6h4.3v1.1h-5.5V120z"/>
	<path class="st1" d="M116.6,120h1.2v9.7h-1.2V120z"/>
	<path class="st1" d="M121.2,120h1.6l4.3,8.2V120h1.2v9.7h-1.6l-4.3-8.2v8.2h-1.2V120z"/>
	<path class="st1" d="M131.7,120h6.5v1H133v3.3h4.6v1H133v3.2h5.3v1.1h-6.5V120z"/>
	<path class="st1" d="M144.5,124.9h9.6v0.8h-9.6V124.9z"/>
	<path class="st1" d="M159.9,128.6c0,0,1.9-1.1,3.4-2.6c1-1,1.9-2.2,1.9-3.3c0-1.1-0.5-1.9-1.7-1.9c-1.4,0-1.9,1.3-2,2.4l-1.2-0.1
		c0-1.7,1.2-3.3,3.1-3.3c1.7,0,3,1.1,3,2.8c0,1.5-1.2,2.9-2.4,4.1c-1.2,1.1-2.4,1.9-2.4,1.9h5.2v1h-7V128.6z"/>
	<path class="st1" d="M173.2,127.1h-4.6v-0.7l4.7-6.4h1.1v6.1h1.6v1h-1.6v2.5h-1.2V127.1z M173.2,126.1v-4.3l-3.2,4.3H173.2z"/>
	<path class="st1" d="M178.5,122.8h1.2v0.9c0.5-0.6,1.2-1.1,2.2-1.1c1.8,0,2.9,1.6,2.9,3.6c0,2-1,3.6-2.9,3.6c-1,0-1.7-0.4-2.2-1.1
		v3.9h-1.2V122.8z M183.5,126.2c0-1.4-0.6-2.6-2-2.6c-1.4,0-2,1.2-2,2.6c0,1.4,0.6,2.6,2,2.6C182.9,128.8,183.5,127.6,183.5,126.2z"
		/>
	<path class="st1" d="M188.7,126.2l-2.4-3.4h1.4l1.6,2.5l1.6-2.5h1.4l-2.4,3.4l2.4,3.4H191l-1.6-2.5l-1.6,2.5h-1.4L188.7,126.2z"/>
</g>
<g>
	<path class="st2" d="M1.9,92.9h8.7v2.5H5.1v3.8h4.2v2.5H5.1v5.8H1.9V92.9z"/>
	<path class="st2" d="M12.3,96.7h2.7v2.6c0.5-1.8,1.3-2.8,2.6-2.8c0.2,0,0.3,0,0.5,0.1v3c-0.2,0-0.4,0-0.5,0c-1.5,0-2.2,1.1-2.2,3.4
		v4.7h-3V96.7z"/>
	<path class="st2" d="M23.1,100.2l-2.9-0.3c0.1-1.1,0.6-1.9,1.4-2.5c0.8-0.6,1.8-0.9,3-0.9c1,0,1.8,0.2,2.4,0.6
		c0.6,0.4,1,0.8,1.2,1.4s0.2,1.3,0.2,2.4v4.3c0,1.3,0.1,2.1,0.2,2.4h-2.8c-0.1-0.3-0.2-0.8-0.2-1.7c-0.7,1.3-1.7,1.9-3,1.9
		c-0.8,0-1.5-0.3-2.1-0.8c-0.5-0.5-0.8-1.2-0.8-2.2c0-1.2,0.4-2.1,1.2-2.8c0.8-0.7,2.3-1.1,4.4-1.2v-0.4c0-0.7-0.1-1.2-0.2-1.5
		s-0.4-0.4-0.9-0.4C23.6,98.5,23.2,99.1,23.1,100.2z M25.5,102.4c-0.9,0.1-1.5,0.3-1.9,0.6c-0.4,0.3-0.6,0.8-0.6,1.5
		c0,0.9,0.3,1.4,1,1.4c0.4,0,0.7-0.2,1-0.6c0.3-0.4,0.4-1.2,0.4-2.3V102.4z"/>
	<path class="st2" d="M31.8,96.7h2.9v1.5c0.5-1.1,1.4-1.7,2.7-1.7c0.7,0,1.3,0.2,1.8,0.5c0.5,0.3,0.8,0.7,0.9,1.2s0.2,1.2,0.2,2.3
		v7.1h-3v-7.1c0-0.7-0.1-1.2-0.3-1.4c-0.2-0.2-0.4-0.3-0.8-0.3c-0.5,0-0.9,0.2-1.1,0.5s-0.3,1-0.3,1.9v6.4h-3V96.7z"/>
	<path class="st2" d="M43.4,92.9h3v8l3-4.2h2.8l-2.7,3.6l3,7.2h-3.3l-1.7-5l-1.1,1.5v3.5h-3V92.9z"/>
	<path class="st2" d="M54.6,92.9h3v14.7h-3V92.9z"/>
	<path class="st2" d="M64,95.8h-3.1v-3H64V95.8z M61,96.7h3v10.8h-3V96.7z"/>
	<path class="st2" d="M67.3,96.7h2.9v1.5c0.5-1.1,1.4-1.7,2.7-1.7c0.7,0,1.3,0.2,1.8,0.5c0.5,0.3,0.8,0.7,0.9,1.2s0.2,1.2,0.2,2.3
		v7.1h-3v-7.1c0-0.7-0.1-1.2-0.3-1.4c-0.2-0.2-0.4-0.3-0.8-0.3c-0.5,0-0.9,0.2-1.1,0.5s-0.3,1-0.3,1.9v6.4h-3V96.7z"/>
	<path class="st2" d="M89.5,99.7h5.1v7.8h-1.4l-0.4-1.7c-0.8,1.3-2,1.9-3.5,1.9c-1.7,0-3-0.7-4-2c-1-1.3-1.5-3.1-1.5-5.3
		c0-2.4,0.5-4.3,1.4-5.7c1-1.4,2.4-2.1,4.3-2.1c3,0,4.7,1.7,5,5l-2.9,0.5c-0.2-1.9-0.9-2.9-2.1-2.9c-0.7,0-1.3,0.4-1.7,1.1
		c-0.4,0.7-0.6,2.1-0.6,4c0,1.8,0.2,3,0.6,3.7c0.4,0.7,1,1.1,1.9,1.1c1.3,0,2-1,2-2.9h-2.2V99.7z"/>
	<path class="st2" d="M106.3,102.1c0,3.8-1.5,5.7-4.4,5.7c-2.9,0-4.4-1.9-4.4-5.7c0-3.8,1.5-5.6,4.4-5.6
		C104.8,96.5,106.3,98.4,106.3,102.1z M103.2,102.1c0-1.4-0.1-2.3-0.3-2.8s-0.5-0.7-1-0.7c-0.5,0-0.8,0.2-1,0.7
		c-0.2,0.5-0.3,1.4-0.3,2.8c0,1.3,0.1,2.2,0.3,2.8c0.2,0.5,0.5,0.8,1,0.8c0.5,0,0.8-0.3,1-0.8C103.1,104.4,103.2,103.5,103.2,102.1z
		"/>
	<path class="st2" d="M109.6,93.4l2.9-0.1v3.4h2v2.4h-2v4c0,0.7,0,1.2,0,1.4c0,0.2,0.1,0.4,0.3,0.5c0.2,0.1,0.5,0.2,0.9,0.2
		c0.2,0,0.5,0,0.9,0v2.3c-0.7,0.2-1.3,0.2-1.8,0.2c-0.9,0-1.6-0.2-2.1-0.5c-0.5-0.4-0.8-0.8-0.9-1.3c-0.1-0.5-0.2-1.4-0.2-2.5v-4.3
		h-1.2v-2.4h1.2V93.4z"/>
	<path class="st2" d="M117,92.9h3v5c0.5-0.9,1.4-1.4,2.7-1.4c0.7,0,1.3,0.2,1.7,0.5c0.4,0.3,0.7,0.8,0.8,1.3
		c0.1,0.5,0.2,1.3,0.2,2.3v7h-3v-7c0-0.7-0.1-1.2-0.2-1.4c-0.1-0.2-0.4-0.3-0.8-0.3c-0.4,0-0.7,0.1-1,0.3c-0.2,0.2-0.4,0.7-0.4,1.5
		v6.9h-3V92.9z"/>
	<path class="st2" d="M131.7,95.8h-3.1v-3h3.1V95.8z M128.6,96.7h3v10.8h-3V96.7z"/>
	<path class="st2" d="M143.1,100.7l-2.8,0.1c0-0.7-0.2-1.2-0.3-1.5c-0.2-0.3-0.5-0.5-0.9-0.5c-1,0-1.5,1.1-1.5,3.2
		c0,1.2,0.1,2.1,0.4,2.6s0.6,0.7,1.1,0.7c0.8,0,1.2-0.7,1.2-2l2.8,0.2c-0.3,2.9-1.7,4.3-4.2,4.3c-1.4,0-2.5-0.5-3.2-1.4
		c-0.7-0.9-1.1-2.3-1.1-4.2c0-1.8,0.4-3.3,1.2-4.2c0.8-1,1.9-1.5,3.3-1.5C141.5,96.5,142.8,97.9,143.1,100.7z"/>
	<path class="st2" d="M151.3,92.9h3.5c1.5,0,2.7,0.2,3.7,0.6c0.9,0.4,1.7,1.2,2.3,2.2c0.6,1.1,0.8,2.6,0.8,4.4
		c0,1.3-0.2,2.5-0.5,3.5s-0.8,1.8-1.4,2.4c-0.6,0.6-1.2,1-1.9,1.2c-0.7,0.2-1.6,0.3-2.6,0.3h-3.9V92.9z M154.5,95.4v9.6h0.5
		c0.7,0,1.3-0.1,1.7-0.4c0.4-0.3,0.7-0.8,1-1.5c0.2-0.7,0.4-1.7,0.4-3.1c0-1.2-0.1-2.2-0.4-2.9c-0.3-0.7-0.6-1.1-1-1.4
		c-0.4-0.2-1-0.4-1.7-0.4H154.5z"/>
	<path class="st2" d="M172.8,102.6h-5.7v0.6c0,1,0.1,1.6,0.4,1.9c0.3,0.3,0.6,0.5,1,0.5c0.9,0,1.4-0.6,1.6-1.8l2.7,0.2
		c-0.5,2.5-1.9,3.8-4.3,3.8c-1.5,0-2.6-0.5-3.4-1.5c-0.8-1-1.1-2.3-1.1-4c0-1.9,0.4-3.3,1.2-4.3c0.8-1,1.9-1.5,3.3-1.5
		c1.2,0,2.3,0.4,3.1,1.3C172.4,98.7,172.8,100.3,172.8,102.6z M170,100.9c0-0.1,0-0.2,0-0.3c0-1.4-0.5-2.1-1.4-2.1
		c-0.9,0-1.4,0.8-1.4,2.4H170z"/>
	<path class="st2" d="M175.7,96.7h2.9v1.5c0.5-1.1,1.4-1.7,2.6-1.7c1.3,0,2.1,0.6,2.3,1.7c0.5-1.1,1.4-1.7,2.6-1.7
		c0.7,0,1.3,0.1,1.7,0.4s0.7,0.6,0.9,1.1c0.2,0.4,0.2,1.3,0.2,2.5v7.1h-3v-6.8c0-0.8-0.1-1.3-0.2-1.6c-0.1-0.2-0.4-0.4-0.8-0.4
		c-0.5,0-0.8,0.2-0.9,0.5c-0.1,0.3-0.2,1-0.2,1.9v6.3h-3v-6.9c0-0.8-0.1-1.3-0.2-1.5c-0.1-0.2-0.4-0.3-0.8-0.3c-0.5,0-0.8,0.2-1,0.5
		s-0.2,1-0.2,1.9v6.3h-3V96.7z"/>
	<path class="st2" d="M195.2,95.8h-3.1v-3h3.1V95.8z M192.1,96.7h3v10.8h-3V96.7z"/>
	<path class="st2" d="M211.1,102.2l3,0.2c-0.1,1.6-0.6,2.9-1.5,3.9s-2.1,1.5-3.6,1.5c-1.8,0-3.2-0.7-4.1-2c-0.9-1.3-1.4-3.2-1.4-5.5
		c0-2.4,0.5-4.2,1.4-5.6c0.9-1.3,2.3-2,4.2-2c3.1,0,4.7,1.9,5,5.7l-2.9,0.2c-0.1-2.2-0.8-3.3-2-3.3c-0.7,0-1.2,0.4-1.6,1.1
		c-0.4,0.7-0.6,2.1-0.6,4.1c0,1.8,0.2,3,0.5,3.7s0.9,1,1.6,1C210.2,105.2,210.9,104.2,211.1,102.2z"/>
	<path class="st2" d="M225.1,102.1c0,3.8-1.5,5.7-4.4,5.7c-2.9,0-4.4-1.9-4.4-5.7c0-3.8,1.5-5.6,4.4-5.6
		C223.7,96.5,225.1,98.4,225.1,102.1z M222,102.1c0-1.4-0.1-2.3-0.3-2.8s-0.5-0.7-1-0.7c-0.5,0-0.8,0.2-1,0.7
		c-0.2,0.5-0.3,1.4-0.3,2.8c0,1.3,0.1,2.2,0.3,2.8c0.2,0.5,0.5,0.8,1,0.8c0.5,0,0.8-0.3,1-0.8C221.9,104.4,222,103.5,222,102.1z"/>
	<path class="st2" d="M228,96.7h2.9v1.5c0.5-1.1,1.4-1.7,2.7-1.7c0.7,0,1.3,0.2,1.8,0.5c0.5,0.3,0.8,0.7,0.9,1.2s0.2,1.2,0.2,2.3
		v7.1h-3v-7.1c0-0.7-0.1-1.2-0.3-1.4c-0.2-0.2-0.4-0.3-0.8-0.3c-0.5,0-0.9,0.2-1.1,0.5s-0.3,1-0.3,1.9v6.4h-3V96.7z"/>
	<path class="st2" d="M244.9,92.9h3v14.7h-2.8v-1.8c-0.5,1.3-1.3,1.9-2.5,1.9c-1.2,0-2-0.5-2.6-1.5c-0.6-1-0.9-2.4-0.9-4
		c0-1.9,0.3-3.3,1-4.2c0.7-0.9,1.5-1.4,2.6-1.4c1,0,1.7,0.4,2.2,1.2V92.9z M244.9,101.3c0-1.1-0.1-1.8-0.3-2.1
		c-0.2-0.4-0.6-0.5-1-0.5c-0.5,0-0.9,0.3-1,0.8s-0.3,1.5-0.3,3.1c0,1.2,0.1,2,0.3,2.5c0.2,0.5,0.5,0.7,1,0.7c0.4,0,0.7-0.2,1-0.5
		c0.3-0.3,0.4-1,0.4-2V101.3z"/>
</g>
<g>
	<path class="st1" d="M5,232h0.9l3.8,9.7H8.3l-0.8-2.1H3.3l-0.8,2.1H1.2L5,232z M7.2,238.5l-1.7-4.8l-1.7,4.8H7.2z"/>
	<path class="st1" d="M12.1,232H15c1.8,0,3.2,1,3.2,2.7c0,1.3-0.8,2.2-2.1,2.5l2.7,4.5h-1.4l-2.6-4.3h-1.5v4.3h-1.2V232z
		 M15.2,236.3c1-0.1,1.8-0.6,1.8-1.6c0-1.1-0.8-1.7-1.9-1.7h-1.7v3.2H15.2z"/>
	<path class="st1" d="M23.3,233H20v-1h7.9v1h-3.3v8.7h-1.2V233z"/>
	<path class="st1" d="M30.1,232h1.2v9.7h-1.2V232z"/>
	<path class="st1" d="M34.2,236.8c0-2.7,1.4-5,4.5-5c1.9,0,3.3,0.9,4.1,2.6l-1.1,0.4c-0.4-1.4-1.6-2-3-2c-2.3,0-3.3,1.8-3.3,3.8
		c0,2.1,1,4,3.3,4c1.4,0,2.4-0.6,3-2l1.1,0.4c-0.8,1.7-2.2,2.6-4.1,2.6C35.6,241.8,34.2,239.5,34.2,236.8z"/>
	<path class="st1" d="M45.6,232h1.2v8.6H51v1.1h-5.5V232z"/>
	<path class="st1" d="M53.6,232h6.5v1h-5.3v3.3h4.6v1h-4.6v3.2h5.3v1.1h-6.5V232z"/>
	<path class="st1" d="M69.9,233h-3.3v-1h7.9v1h-3.3v8.7h-1.2V233z"/>
	<path class="st1" d="M76.7,232h6.5v1h-5.3v3.3h4.6v1h-4.6v3.2h5.3v1.1h-6.5V232z"/>
	<path class="st1" d="M88.5,236.8l-3.3-4.8h1.4l2.6,4l2.6-4h1.4l-3.3,4.8l3.3,4.8h-1.4l-2.6-3.9l-2.6,3.9h-1.4L88.5,236.8z"/>
	<path class="st1" d="M97.8,233h-3.3v-1h7.9v1H99v8.7h-1.2V233z"/>
	<path class="st1" d="M107.9,236.9h9.6v0.8h-9.6V236.9z"/>
	<path class="st1" d="M125.7,234.3h-2.3v-1h1.2c0.8,0,1.2-0.5,1.2-1.2V232h1.1v9.7h-1.2V234.3z"/>
	<path class="st1" d="M134,239.1h-4.6v-0.7l4.7-6.4h1.1v6.1h1.6v1h-1.6v2.5H134V239.1z M134,238.1v-4.3l-3.2,4.3H134z"/>
	<path class="st1" d="M139.3,234.8h1.2v0.9c0.5-0.6,1.2-1.1,2.2-1.1c1.8,0,2.9,1.6,2.9,3.6c0,2-1,3.6-2.9,3.6c-1,0-1.7-0.4-2.2-1.1
		v3.9h-1.2V234.8z M144.3,238.2c0-1.4-0.6-2.6-2-2.6c-1.4,0-2,1.2-2,2.6c0,1.4,0.6,2.6,2,2.6C143.7,240.8,144.3,239.6,144.3,238.2z"
		/>
	<path class="st1" d="M149.6,238.2l-2.4-3.4h1.4l1.6,2.5l1.6-2.5h1.4l-2.4,3.4l2.4,3.4h-1.4l-1.6-2.5l-1.6,2.5h-1.4L149.6,238.2z"/>
</g>
<g>
	<path class="st2" d="M1.3,215.6c1.9-0.1,2-0.2,2-1.4V203c0-1.2,0-1.3-2-1.4V201h6.1v0.6c-1.9,0.1-2,0.2-2,1.4v4.8h7.7V203
		c0-1.2,0-1.3-2-1.4V201h6.1v0.6c-1.9,0.1-2,0.2-2,1.4v11.1c0,1.2,0.1,1.3,2,1.4v0.6h-6.1v-0.6c1.9-0.1,2-0.2,2-1.4v-5.5H5.4v5.5
		c0,1.2,0.1,1.3,2,1.4v0.6H1.3V215.6z"/>
	<path class="st2" d="M24.1,205.2c4,0,4.4,3.1,4.4,4.4c0,0.7-0.4,0.8-0.9,0.8h-6.3c0,2.3,0.5,4.9,3.2,4.9c1.7,0,2.6-1.1,3.2-2.3
		l0.7,0.4c-0.6,1.7-1.8,3.1-4.3,3.1c-3.6,0-5.1-2.1-5.1-5.6C19,207.6,20.7,205.2,24.1,205.2z M25.5,209.6c0.6,0,0.7-0.3,0.7-0.7
		c0-0.9-0.2-2.9-2.3-2.9c-2.3,0-2.6,2.8-2.6,3.7H25.5z"/>
	<path class="st2" d="M30.4,205.7l3.5-0.5l0.2,0.1v7.5c0,1.7,0.9,2.5,2.2,2.5c1.1,0,2.2-0.6,2.7-1.6c0.1-0.2,0.2-0.7,0.2-1.3v-5
		c0-0.8-0.1-0.9-0.7-1l-0.8-0.1v-0.6l3.5-0.5l0.2,0.1v9c0,1.1,0.1,1.2,1.7,1.3v0.6h-3.5l-0.2-1.3c-0.6,0.3-2.2,1.6-4,1.6
		c-1.6,0-3.1-0.8-3.1-3.3v-5.8c0-0.8-0.1-0.9-0.7-1l-0.8-0.1V205.7z"/>
	<path class="st2" d="M44.4,215.6c1.5-0.1,1.7-0.2,1.7-1.3v-6.9c0-0.8-0.1-0.9-0.7-1l-0.8-0.1v-0.6l3.3-0.5l0.3,1.8
		c1.5-1.3,2.1-1.8,2.9-1.8c0.9,0,1.2,0.6,1.2,1.1c0,0.7-0.5,1.2-1,1.2c-0.1,0-0.3,0-0.4-0.1c-0.6-0.4-1-0.5-1.4-0.5
		c-0.5,0-1.3,0.6-1.3,2.3v5.1c0,1.1,0.1,1.2,2.1,1.3v0.6h-5.8V215.6z"/>
	<path class="st2" d="M53.7,215.6c1.6-0.1,1.7-0.2,1.7-1.3v-6.9c0-0.8-0.1-0.9-0.7-1l-0.8-0.1v-0.6l3.5-0.5l0.2,0.1v9
		c0,1.1,0.1,1.2,1.6,1.3v0.6h-5.4V215.6z M56.4,200.5c0.8,0,1.3,0.6,1.3,1.3s-0.5,1.3-1.3,1.3c-0.8,0-1.3-0.6-1.3-1.3
		S55.6,200.5,56.4,200.5z"/>
	<path class="st2" d="M61.6,212.5c0.4,1.9,1.4,3.2,3.2,3.2c1.2,0,2-0.7,2-1.8c0-1.5-1.4-2-2.4-2.3c-1.8-0.6-3.3-1.4-3.3-3.2
		c0-2.1,1.6-3.2,4-3.2c1,0,2.1,0.2,2.8,0.7v2.6h-0.6c-0.2-1.3-0.9-2.6-2.5-2.6c-1.1,0-2,0.6-2,1.8c0,1.2,1.5,1.7,2.4,2
		c2.3,0.7,3.5,1.6,3.5,3.5c0,1.9-1.5,3.3-4.1,3.3c-1.3,0-2.6-0.4-3.4-1.1l-0.2-2.9H61.6z"/>
	<path class="st2" d="M70.8,205.4h1.7l1.3-2.8h0.6v2.8h2.8v0.9h-2.8v6.8c0,1.7,0.7,2.2,1.5,2.2c0.6,0,1-0.1,1.6-0.3l0.2,0.5
		c-0.6,0.4-1.7,1-2.8,1c-0.8,0-2.4-0.3-2.4-2.5v-7.7h-1.6V205.4z"/>
	<path class="st2" d="M78.9,215.6c1.6-0.1,1.7-0.2,1.7-1.3v-6.9c0-0.8-0.1-0.9-0.7-1l-0.8-0.1v-0.6l3.5-0.5l0.2,0.1v9
		c0,1.1,0.1,1.2,1.6,1.3v0.6h-5.4V215.6z M81.6,200.5c0.8,0,1.3,0.6,1.3,1.3s-0.5,1.3-1.3,1.3c-0.8,0-1.3-0.6-1.3-1.3
		S80.8,200.5,81.6,200.5z"/>
	<path class="st2" d="M91.6,205.2c2.4,0,3.8,1.1,3.8,2.1c0,0.8-0.9,1.1-1.3,1.1c-0.4,0-0.5-0.2-0.7-0.6c-0.4-1.2-1.1-1.9-2.1-1.9
		c-1.5,0-2.8,1.3-2.8,4.6c0,2.1,0.6,4.8,3.2,4.8c1.6,0,2.5-0.8,3.2-2.3l0.6,0.3c-0.6,2.4-2.7,3.2-4.2,3.2c-3.3,0-5.1-1.9-5.1-5.5
		C86.2,208,87.6,205.2,91.6,205.2z"/>
	<path class="st2" d="M99.7,210.7c1.7-0.5,3.9-1.1,4.4-1.7v-0.9c0-1.8-1-2.2-1.9-2.2c-0.9,0-1.8,0.5-2.3,2.2
		c-0.1,0.4-0.2,0.6-0.7,0.6c-0.4,0-1.2-0.3-1.2-1c0-1.2,2-2.5,4.4-2.5c3.3,0,3.6,1.6,3.6,2.9v5.3c0,1.4,0.4,1.8,0.8,1.9
		c0.3,0.1,0.8,0,1.1,0l0.1,0.5c-0.8,0.4-1.8,0.7-2.6,0.7c-0.8,0-1.1-0.5-1.4-1.3c-0.7,0.5-2,1.3-3.3,1.3c-2.1,0-3.2-1.5-3.2-3.1
		C97.7,212.3,98.2,211.2,99.7,210.7z M101.9,215.3c0.9,0,2.2-0.5,2.2-2.2V210c-0.5,0.3-1.6,0.7-2.5,1.1c-1.2,0.5-1.7,1-1.7,2
		C99.9,214.3,100.6,215.3,101.9,215.3z"/>
	<path class="st2" d="M114.9,215.6c1.9-0.1,2-0.2,2-1.4V203c0-1.2,0-1.3-2-1.4V201h6.4c3.9,0,5.2,1.6,5.2,3.8c0,2.1-1.5,3.5-3.6,3.9
		v0c2.3,0.6,2.7,2,3,4c0.2,1.5,0.6,2.7,2.3,2.9v0.6h-1.8c-1.3,0-2.1-0.5-2.5-1.9c-0.2-1-0.5-2.8-0.6-3.4c-0.4-1.5-1.4-1.9-2.7-1.9
		h-1.5v5.1c0,0.9,0,1,0.1,1.1c0.2,0.3,0.7,0.3,1.6,0.4v0.6h-5.8V215.6z M120.8,208.3c2.1,0,3.3-1,3.3-3.3c0-2.6-1.8-3.2-3.5-3.2
		c-1.5,0-1.6,0.2-1.6,1.1v5.4H120.8z"/>
	<path class="st2" d="M134.6,205.2c4,0,4.4,3.1,4.4,4.4c0,0.7-0.4,0.8-0.9,0.8h-6.3c0,2.3,0.5,4.9,3.2,4.9c1.7,0,2.6-1.1,3.2-2.3
		l0.7,0.4c-0.6,1.7-1.8,3.1-4.3,3.1c-3.6,0-5.1-2.1-5.1-5.6C129.5,207.6,131.2,205.2,134.6,205.2z M136,209.6c0.6,0,0.7-0.3,0.7-0.7
		c0-0.9-0.2-2.9-2.3-2.9c-2.3,0-2.6,2.8-2.6,3.7H136z"/>
	<path class="st2" d="M143.8,215.9L143.8,215.9c-1.1-0.2-1.9-1-1.9-1.8c0-0.9,0.8-1.5,2-2v0c-1-0.3-2.4-1.2-2.4-3.3
		c0-1.6,1.2-3.7,4.6-3.7c1,0,2.2,0.3,2.8,0.7l2.8-0.9l0.2,0.2l-0.4,1.4l-1.7,0.3c0.4,0.4,0.7,1.1,0.7,2.1c0,2.7-2.4,3.6-4.4,3.6
		c-0.2,0-0.7,0-1.1-0.1c-0.3,0.1-1.1,0.4-1.1,1.1c0,0.4,0.2,0.9,1.8,0.9h1.8c2.4,0,4.2,0.8,4.2,3.2c0,1.4-0.7,2.4-1.7,3
		c-1.1,0.6-2.4,0.9-3.8,0.9c-2.6,0-4.8-1-4.8-3.2C141.2,216.7,142.8,216.2,143.8,215.9z M146.5,220.8c1.6,0,3.1-0.8,3.1-2.6
		c0-1.7-1.4-2.1-3.4-2.1c-1.1,0-1.8,0.1-2.3,0.5c-0.5,0.4-0.7,0.9-0.7,1.7C143.3,219.8,144.6,220.8,146.5,220.8z M146,211.7
		c1.3,0,2.2-1,2.2-2.8c0-2.1-1.1-2.9-2.2-2.9c-1.2,0-2.3,0.7-2.3,2.9C143.7,210.7,144.7,211.7,146,211.7z"/>
	<path class="st2" d="M152.9,205.7l3.5-0.5l0.2,0.1v7.5c0,1.7,0.9,2.5,2.2,2.5c1.1,0,2.2-0.6,2.7-1.6c0.1-0.2,0.2-0.7,0.2-1.3v-5
		c0-0.8-0.1-0.9-0.7-1l-0.8-0.1v-0.6l3.5-0.5l0.2,0.1v9c0,1.1,0.1,1.2,1.7,1.3v0.6h-3.5l-0.2-1.3c-0.6,0.3-2.2,1.6-4,1.6
		c-1.6,0-3.1-0.8-3.1-3.3v-5.8c0-0.8-0.1-0.9-0.7-1l-0.8-0.1V205.7z"/>
	<path class="st2" d="M166.6,215.6c1.6-0.1,1.7-0.2,1.7-1.3v-12.2c0-0.8-0.1-0.9-0.7-1l-0.8-0.1v-0.6l3.5-0.5l0.2,0.1v14.3
		c0,1.1,0.1,1.2,1.6,1.3v0.6h-5.4V215.6z"/>
	<path class="st2" d="M176,210.7c1.7-0.5,3.9-1.1,4.4-1.7v-0.9c0-1.8-1-2.2-1.9-2.2c-0.9,0-1.8,0.5-2.3,2.2
		c-0.1,0.4-0.2,0.6-0.7,0.6c-0.4,0-1.2-0.3-1.2-1c0-1.2,2-2.5,4.4-2.5c3.3,0,3.6,1.6,3.6,2.9v5.3c0,1.4,0.4,1.8,0.8,1.9
		c0.3,0.1,0.8,0,1.1,0l0.1,0.5c-0.8,0.4-1.8,0.7-2.6,0.7c-0.8,0-1.1-0.5-1.4-1.3c-0.7,0.5-2,1.3-3.3,1.3c-2.1,0-3.2-1.5-3.2-3.1
		C173.9,212.3,174.4,211.2,176,210.7z M178.2,215.3c0.9,0,2.2-0.5,2.2-2.2V210c-0.5,0.3-1.6,0.7-2.5,1.1c-1.2,0.5-1.7,1-1.7,2
		C176.2,214.3,176.8,215.3,178.2,215.3z"/>
	<path class="st2" d="M185.6,215.6c1.5-0.1,1.7-0.2,1.7-1.3v-6.9c0-0.8-0.1-0.9-0.7-1l-0.8-0.1v-0.6l3.3-0.5l0.3,1.8
		c1.5-1.3,2.1-1.8,2.9-1.8c0.9,0,1.2,0.6,1.2,1.1c0,0.7-0.5,1.2-1,1.2c-0.1,0-0.3,0-0.4-0.1c-0.6-0.4-1-0.5-1.4-0.5
		c-0.5,0-1.3,0.6-1.3,2.3v5.1c0,1.1,0.1,1.2,2.1,1.3v0.6h-5.8V215.6z"/>
</g>
<g>
	<path class="st2" d="M1.6,186.4l1-0.1c0.6,0,0.8-0.4,1-1.2L6,174.1c0.2-0.8,0.2-1.2-0.4-1.2l-1.1-0.1l0.2-0.8h6.9l-0.2,0.8l-1,0.1
		c-0.6,0-0.8,0.4-1,1.2l-1,4.6h5.7l1-4.6c0.2-0.8,0.2-1.2-0.4-1.2l-1.1-0.1l0.2-0.8h6.9l-0.2,0.8l-1,0.1c-0.6,0-0.8,0.4-1,1.2
		l-2.4,10.9c-0.2,0.8-0.2,1.2,0.4,1.2l1.1,0.1l-0.2,0.8h-6.9l0.2-0.8l1-0.1c0.6,0,0.8-0.4,1-1.2l1.2-5.3H8.1l-1.2,5.3
		c-0.2,0.8-0.2,1.2,0.4,1.2l1.1,0.1l-0.2,0.8H1.4L1.6,186.4z"/>
	<path class="st2" d="M21.5,178.7c1.2-1.5,2.9-2.5,5.1-2.5c1.9,0,3.3,1,3.3,2.6c0,0.7-0.2,1.4-1,2.2c-0.9,0.8-2.5,1.5-5.8,2.2v0.5
		c0,1.2,0.4,2.4,1.7,2.4c1.3,0,2.4-1,3.5-2.7l0.7,0.5c-1.6,2.9-3.7,3.6-5.6,3.6c-1.6,0-3.6-0.8-3.6-3.8
		C19.7,182,20.3,180.2,21.5,178.7z M27,178.1c0-0.6-0.3-1-0.8-1c-1.3,0-2.8,2.4-3.1,4.9C25.6,181.6,27,179.9,27,178.1z"/>
	<path class="st2" d="M31.7,176.7l5.1-0.6l0.1,0.1l-2.1,8.1c-0.2,0.8-0.2,1.3,0.4,1.3c1,0,2.8-2.9,3.6-4.8c0.5-1.1,0.8-2.3,1.5-4.5
		l3.1-0.3l-2.2,8.5c-0.2,0.6-0.2,1,0.3,1c0.5,0,1.3-1.2,1.9-2.2l0.6,0.4c-0.9,1.8-2.2,3.5-4.4,3.5c-1.2,0-1.8-0.9-1.4-2.4l0.7-2.5
		h-0.1c-1.4,2.6-3.2,4.9-5.7,4.9c-1.8,0-1.9-1.4-1.5-3.2l1.5-5.7c0.2-0.7,0.1-1-0.3-1l-1.3-0.1L31.7,176.7z"/>
	<path class="st2" d="M47.6,178.6c0.1-0.6,0.1-0.9-0.3-0.9l-1.3-0.1l0.2-0.7l4.7-0.6l0.1,0.1l-0.8,3.2h0.1c1.1-2,2.4-3.3,3.8-3.3
		c0.8,0,1.4,0.4,1.4,1.3c0,0.9-0.6,1.9-1.5,1.9c-0.4,0-0.7-0.2-1.1-0.4c-0.3-0.2-0.6-0.4-0.8-0.4c-0.7,0-1.5,1.5-2.1,3.9
		c-0.4,1.5-0.8,3.3-1.2,4.7l-3.1,0.3L47.6,178.6z"/>
	<path class="st2" d="M57.9,178.6c0.2-0.6,0.1-0.9-0.4-0.9l-1.3-0.1l0.2-0.7l5.1-0.6l0.1,0.1l-2.3,8.4c-0.2,0.6-0.2,1,0.2,1
		c0.5,0,1.3-1.2,1.9-2.2l0.7,0.4c-0.9,1.8-2.3,3.5-4.4,3.5c-1.5,0-2-0.9-1.5-2.6L57.9,178.6z M60.7,171.4c1,0,1.8,0.5,1.8,1.6
		c0,1.2-0.8,1.9-1.9,1.9c-1.1,0-1.8-0.6-1.8-1.6C58.8,172.4,59.4,171.4,60.7,171.4z"/>
	<path class="st2" d="M64.3,183.7c0.5,0,0.8,0.3,1,0.7c0.8,1.6,1.4,2.1,2.1,2.1c0.7,0,1.1-0.5,1.1-1.1c-0.1-1-1-1.8-1.9-2.6
		c-0.9-0.7-1.9-1.7-2-3c-0.1-1.8,1.3-3.6,4-3.6c2.5,0,3.5,1.2,3.5,1.9c0,0.9-0.9,1.3-1.5,1.3c-0.4,0-0.6-0.1-0.9-0.6
		c-0.6-1.2-1.1-1.6-1.6-1.6s-1.1,0.5-1,1.1c0,0.8,0.6,1.5,1.9,2.4c1,0.7,2,1.8,2,3.3c0,1.8-1.2,3.5-4.2,3.5c-2.8,0-4-1.3-4-2.2
		C62.9,184.4,63.7,183.7,64.3,183.7z"/>
	<path class="st2" d="M75.8,177.5H74l0.3-1.1h1.8l0.4-1.6l3.3-1.7l0.3,0.2l-1,3.1h2.6l-0.3,1.1h-2.6l-1.8,7.3
		c-0.1,0.5-0.1,0.9,0.3,0.9c0.6,0,1.5-1.1,2.2-2.2l0.6,0.4c-1.1,2-2.6,3.5-4.6,3.5c-1.3,0-2.1-0.8-1.6-2.7L75.8,177.5z"/>
	<path class="st2" d="M84.1,178.6c0.2-0.6,0.1-0.9-0.4-0.9l-1.3-0.1l0.2-0.7l5.1-0.6l0.1,0.1l-2.3,8.4c-0.2,0.6-0.2,1,0.2,1
		c0.5,0,1.3-1.2,1.9-2.2l0.7,0.4c-0.9,1.8-2.3,3.5-4.4,3.5c-1.5,0-2-0.9-1.5-2.6L84.1,178.6z M86.9,171.4c1,0,1.8,0.5,1.8,1.6
		c0,1.2-0.8,1.9-1.9,1.9c-1.1,0-1.8-0.6-1.8-1.6C85,172.4,85.6,171.4,86.9,171.4z"/>
	<path class="st2" d="M96.5,176.2c2,0,3.3,0.9,3.3,2.1c0,0.8-1.1,1.4-1.9,1.4c-0.6,0-0.8-0.5-0.9-1c-0.3-1.2-0.5-1.5-1-1.5
		c-1.4,0-3,3.5-3,6.5c0,1.3,0.4,2.4,1.6,2.4c1.5,0,2.5-1.4,3.3-2.8l0.7,0.5c-1.6,3.1-3.7,3.8-5.4,3.8c-1.9,0-3.5-1-3.5-3.7
		C89.7,180.4,92,176.2,96.5,176.2z"/>
	<path class="st2" d="M107.6,176.2c0.6,0,1.2,0.1,1.6,0.4l0.1-0.2h3l-2.2,8.3c-0.2,0.6-0.2,1,0.2,1c0.5,0,1.4-1.2,1.9-2.1l0.6,0.4
		c-0.9,1.8-2.3,3.5-4.4,3.5c-1.4,0-1.9-0.9-1.4-2.8l0.6-1.9h-0.1c-1.2,2-2.8,4.7-5.4,4.7c-1.6,0-2.2-1.3-2.2-2.6
		C100,182,102.4,176.2,107.6,176.2z M104,185.7c0.7,0,1.6-1.1,2.6-2.8c1.1-1.8,1.9-3.9,2.3-5.5c-0.3-0.2-0.7-0.3-1.1-0.3
		c-2.5,0-4.5,5.2-4.5,7.5C103.4,185.3,103.5,185.7,104,185.7z"/>
	<path class="st2" d="M118.5,186.4l1-0.1c0.6,0,0.8-0.4,1-1.2l2.4-10.9c0.2-0.8,0.2-1.2-0.4-1.2l-1.1-0.1l0.2-0.8h5.9
		c2.4,0,3.9,0.3,4.7,1c0.8,0.6,1.2,1.5,1.2,2.5c0,1.8-1.3,3.4-4.2,3.7v0c1.5,0.3,3.3,1.3,3.3,3.7c0,1.4-0.7,2.6-1.8,3.3
		c-1.2,0.8-3,1-5.1,1h-7.3L118.5,186.4z M125.2,186.2c2.6,0,3.7-1.8,3.7-3.8c0-1.7-1-2.7-2.9-2.7h-0.9l-1.1,5.1
		C123.8,185.7,123.9,186.2,125.2,186.2z M126.3,178.7c2.2,0,3.7-1.3,3.7-3.4c0-1.6-1-2.2-2.4-2.2c-1,0-1.1,0.2-1.2,0.8l-1.1,4.8
		H126.3z"/>
	<path class="st2" d="M136.1,179c1-1.5,2.6-2.9,5.4-2.9c2.3,0,4.6,0.9,4.6,4.3c0,1-0.4,2.6-1.4,4.2c-1,1.6-2.6,2.8-5.4,2.8
		c-3.2,0-4.6-1.7-4.6-4.1C134.8,182.4,135.1,180.6,136.1,179z M139.3,186.5c2.3,0,3.6-5.9,3.6-7.5c0-0.9-0.2-1.8-1.3-1.8
		s-1.8,1.1-2.5,2.6c-0.7,1.6-1.1,3.6-1.1,5.1C138,186,138.5,186.5,139.3,186.5z"/>
	<path class="st2" d="M151.1,173.3c0.2-0.6,0.1-0.9-0.4-0.9l-1.3-0.2l0.2-0.7l5-0.6l0.1,0.1l-3.3,13.7c-0.1,0.6-0.2,1,0.2,1
		c0.5,0,1.3-1.1,1.9-2.2l0.7,0.4c-0.9,1.8-2.2,3.5-4.3,3.5c-1.5,0-2-1-1.6-2.8L151.1,173.3z"/>
	<path class="st2" d="M162.6,176.2c0.7,0,1.3,0.1,1.8,0.4l0,0l0.8-3.3c0.1-0.6,0.1-0.9-0.3-0.9l-1.1-0.2l0.2-0.7l4.8-0.6l0.2,0.1
		l-3.2,13.7c-0.2,0.6-0.2,1,0.3,1c0.5,0,1.3-1.2,1.9-2.2l0.6,0.3c-0.9,1.9-2.3,3.6-4.3,3.6c-1.4,0-2-0.7-1.5-2.6l0.7-2.4l-0.1,0
		c-1.3,2.2-2.8,4.9-5.6,4.9c-1.8,0-2.4-1.5-2.4-2.9C155.2,182,157.4,176.2,162.6,176.2z M159.4,185.7c1.5,0,3.9-4.1,4.8-8.2
		c-0.3-0.2-0.7-0.4-1.2-0.4c-2.6,0-4.5,5.2-4.5,7.3C158.6,185.2,158.8,185.7,159.4,185.7z"/>
	<path class="st2" d="M174,186.4l1-0.1c0.6,0,0.8-0.4,1-1.2l2.4-10.9c0.2-0.8,0.2-1.2-0.4-1.2l-1.1-0.1l0.2-0.8h6.9l-0.2,0.8l-1,0.1
		c-0.6,0-0.8,0.4-1,1.2l-2.4,10.9c-0.2,0.8-0.2,1.2,0.4,1.2l1.1,0.1l-0.2,0.8h-6.9L174,186.4z"/>
	<path class="st2" d="M185.8,177.5H184l0.3-1.1h1.8l0.4-1.6l3.3-1.7l0.3,0.2l-1,3.1h2.6l-0.3,1.1h-2.6l-1.8,7.3
		c-0.1,0.5-0.1,0.9,0.3,0.9c0.6,0,1.5-1.1,2.2-2.2l0.6,0.4c-1.1,2-2.6,3.5-4.6,3.5c-1.3,0-2.1-0.8-1.6-2.7L185.8,177.5z"/>
	<path class="st2" d="M199,176.2c0.6,0,1.2,0.1,1.6,0.4l0.1-0.2h3l-2.2,8.3c-0.2,0.6-0.2,1,0.2,1c0.5,0,1.4-1.2,1.9-2.1l0.6,0.4
		c-0.9,1.8-2.3,3.5-4.4,3.5c-1.4,0-1.9-0.9-1.4-2.8l0.6-1.9h-0.1c-1.2,2-2.8,4.7-5.4,4.7c-1.6,0-2.2-1.3-2.2-2.6
		C191.3,182,193.7,176.2,199,176.2z M195.3,185.7c0.7,0,1.6-1.1,2.6-2.8c1.1-1.8,1.9-3.9,2.3-5.5c-0.3-0.2-0.7-0.3-1.1-0.3
		c-2.5,0-4.5,5.2-4.5,7.5C194.7,185.3,194.8,185.7,195.3,185.7z"/>
	<path class="st2" d="M208.7,173.3c0.2-0.6,0.1-0.9-0.4-0.9l-1.3-0.2l0.2-0.7l5-0.6l0.1,0.1l-3.3,13.7c-0.1,0.6-0.2,1,0.2,1
		c0.5,0,1.3-1.1,1.9-2.2l0.7,0.4c-0.9,1.8-2.2,3.5-4.3,3.5c-1.5,0-2-1-1.6-2.8L208.7,173.3z"/>
	<path class="st2" d="M215.5,178.6c0.2-0.6,0.1-0.9-0.4-0.9l-1.3-0.1l0.2-0.7l5.1-0.6l0.1,0.1l-2.3,8.4c-0.2,0.6-0.2,1,0.2,1
		c0.5,0,1.3-1.2,1.9-2.2l0.7,0.4c-0.9,1.8-2.3,3.5-4.4,3.5c-1.5,0-2-0.9-1.5-2.6L215.5,178.6z M218.2,171.4c1,0,1.8,0.5,1.8,1.6
		c0,1.2-0.8,1.9-1.9,1.9c-1.1,0-1.8-0.6-1.8-1.6C216.3,172.4,216.9,171.4,218.2,171.4z"/>
	<path class="st2" d="M227.8,176.2c2,0,3.3,0.9,3.3,2.1c0,0.8-1.1,1.4-1.9,1.4c-0.6,0-0.8-0.5-0.9-1c-0.3-1.2-0.5-1.5-1-1.5
		c-1.4,0-3,3.5-3,6.5c0,1.3,0.4,2.4,1.6,2.4c1.5,0,2.5-1.4,3.3-2.8l0.7,0.5c-1.6,3.1-3.7,3.8-5.4,3.8c-1.9,0-3.5-1-3.5-3.7
		C221,180.4,223.3,176.2,227.8,176.2z"/>
</g>
<g>
	<path class="st1" d="M2.2,313h2.9c1.6,0,3.2,0.9,3.2,2.6c0,0.9-0.5,1.5-1.3,2c1,0.4,1.7,1.3,1.7,2.4c0,1.7-1.6,2.7-3.2,2.7H2.2V313
		z M5.1,317.2c1,0,1.9-0.4,1.9-1.5c0-1-0.9-1.6-1.9-1.6H3.4v3.1H5.1z M5.6,321.5c1,0,1.9-0.6,1.9-1.7c0-1.1-0.9-1.6-1.9-1.6H3.4v3.3
		H5.6z"/>
	<path class="st1" d="M11.3,318.7V313h1.2v5.7c0,1.8,0.5,3,2.3,3s2.3-1.2,2.3-3V313h1.2v5.6c0,2.5-1,4.2-3.5,4.2
		S11.3,321.1,11.3,318.7z"/>
	<path class="st1" d="M23.7,314h-3.3v-1h7.9v1h-3.3v8.7h-1.2V314z"/>
	<path class="st1" d="M32.6,314h-3.3v-1h7.9v1h-3.3v8.7h-1.2V314z"/>
	<path class="st1" d="M38.9,317.8c0-2.7,1.4-5,4.5-5c3.1,0,4.5,2.3,4.5,5s-1.4,5-4.5,5C40.3,322.8,38.9,320.5,38.9,317.8z
		 M46.7,317.8c0-2-1-3.9-3.3-3.9c-2.4,0-3.3,1.8-3.3,3.9s1,3.9,3.3,3.9C45.7,321.7,46.7,319.8,46.7,317.8z"/>
	<path class="st1" d="M50.8,313h1.6l4.3,8.2V313h1.2v9.7h-1.6l-4.3-8.2v8.2h-1.2V313z"/>
	<path class="st1" d="M60.6,320.1l1.2-0.3c0.1,1.3,1.2,1.9,2.4,1.9c1.2,0,1.9-0.5,1.9-1.7c0-2.4-4.8-1.8-4.8-4.7
		c0-1.5,1.3-2.5,2.8-2.5c1.2,0,2.2,0.5,2.8,1.5l-0.9,0.6c-0.4-0.7-1.1-1.1-1.9-1.1c-0.8,0-1.6,0.5-1.6,1.4c0,2.2,4.8,1.6,4.8,4.7
		c0,1.7-1.4,2.8-3.1,2.8C62.4,322.7,60.9,321.9,60.6,320.1z"/>
	<path class="st1" d="M73.2,317.9h9.6v0.8h-9.6V317.9z"/>
	<path class="st1" d="M91,315.3h-2.3v-1h1.2c0.8,0,1.2-0.5,1.2-1.2V313h1.1v9.7H91V315.3z"/>
	<path class="st1" d="M95.4,319.5c0-0.6,0.2-1.2,0.5-1.7l2.9-4.9h1.3l-2.2,3.5c0.3-0.1,0.5-0.1,0.8-0.1c1.8,0,3.3,1.3,3.3,3.1
		c0,1.7-1.4,3.3-3.3,3.3C96.9,322.8,95.4,321.3,95.4,319.5z M100.9,319.5c0-1.2-1-2.2-2.2-2.2c-1.2,0-2.2,1-2.2,2.2
		c0,1.2,1,2.2,2.2,2.2C99.9,321.7,100.9,320.7,100.9,319.5z"/>
	<path class="st1" d="M104.7,315.8h1.2v0.9c0.5-0.6,1.2-1,2.2-1c1.8,0,2.9,1.6,2.9,3.6c0,2-1,3.6-2.9,3.6c-1,0-1.7-0.4-2.2-1.1v3.9
		h-1.2V315.8z M109.7,319.2c0-1.4-0.6-2.6-2-2.6c-1.4,0-2,1.2-2,2.6c0,1.4,0.6,2.6,2,2.6C109.1,321.8,109.7,320.6,109.7,319.2z"/>
	<path class="st1" d="M115,319.2l-2.4-3.4h1.4l1.6,2.5l1.6-2.5h1.4l-2.4,3.4l2.4,3.4h-1.4l-1.6-2.5l-1.6,2.5h-1.4L115,319.2z"/>
</g>
<g>
	<path class="st2" d="M8.3,290.9H3.8v6.5H2.5v-15.6h5.1c1.7,0,3,0.4,3.9,1.2c0.9,0.8,1.4,1.9,1.4,3.4c0,1-0.3,1.9-0.9,2.7
		c-0.6,0.8-1.4,1.3-2.4,1.6l3.9,6.7v0.1h-1.4L8.3,290.9z M3.8,289.8h4c1.1,0,2-0.3,2.7-0.9c0.7-0.6,1-1.4,1-2.5c0-1.1-0.4-2-1.1-2.6
		c-0.7-0.6-1.7-0.9-3-0.9H3.8V289.8z"/>
	<path class="st2" d="M29.1,290.4c0,1.4-0.2,2.7-0.7,3.8c-0.5,1.1-1.2,1.9-2.1,2.5c-0.9,0.6-2,0.9-3.2,0.9c-1.8,0-3.3-0.7-4.4-2
		c-1.1-1.3-1.7-3.1-1.7-5.3v-1.6c0-1.4,0.3-2.7,0.8-3.8s1.2-1.9,2.1-2.5s2-0.9,3.2-0.9s2.3,0.3,3.2,0.9c0.9,0.6,1.6,1.4,2.1,2.5
		c0.5,1.1,0.8,2.3,0.8,3.7V290.4z M27.8,288.7c0-1.9-0.4-3.4-1.3-4.4c-0.9-1.1-2-1.6-3.5-1.6c-1.5,0-2.6,0.5-3.5,1.6
		c-0.9,1.1-1.3,2.6-1.3,4.5v1.6c0,1.9,0.4,3.3,1.3,4.4s2,1.6,3.5,1.6c1.5,0,2.7-0.5,3.5-1.6c0.8-1.1,1.3-2.6,1.3-4.5V288.7z"/>
	<path class="st2" d="M33.5,297.4v-15.6h4.6c1.7,0,2.9,0.3,3.8,1c0.9,0.7,1.3,1.7,1.3,3.1c0,0.8-0.2,1.5-0.7,2.1s-1,1-1.8,1.3
		c0.9,0.2,1.6,0.6,2.2,1.3c0.6,0.7,0.8,1.5,0.8,2.4c0,1.4-0.4,2.5-1.3,3.2c-0.9,0.8-2.1,1.2-3.7,1.2H33.5z M34.9,288.8h3.6
		c1.1,0,2-0.3,2.6-0.8c0.6-0.5,0.9-1.2,0.9-2.2c0-1-0.3-1.7-0.9-2.2c-0.6-0.5-1.6-0.7-2.8-0.7h-3.3V288.8z M34.9,289.9v6.4h4
		c1.1,0,2-0.3,2.7-0.9c0.7-0.6,1-1.4,1-2.4c0-1-0.3-1.7-1-2.3c-0.6-0.6-1.5-0.8-2.6-0.8H34.9z"/>
	<path class="st2" d="M59.7,290.4c0,1.4-0.2,2.7-0.7,3.8c-0.5,1.1-1.2,1.9-2.1,2.5c-0.9,0.6-2,0.9-3.2,0.9c-1.8,0-3.3-0.7-4.4-2
		c-1.1-1.3-1.7-3.1-1.7-5.3v-1.6c0-1.4,0.3-2.7,0.8-3.8s1.2-1.9,2.1-2.5s2-0.9,3.2-0.9s2.3,0.3,3.2,0.9c0.9,0.6,1.6,1.4,2.1,2.5
		c0.5,1.1,0.8,2.3,0.8,3.7V290.4z M58.4,288.7c0-1.9-0.4-3.4-1.3-4.4c-0.9-1.1-2-1.6-3.5-1.6c-1.5,0-2.6,0.5-3.5,1.6
		c-0.9,1.1-1.3,2.6-1.3,4.5v1.6c0,1.9,0.4,3.3,1.3,4.4s2,1.6,3.5,1.6c1.5,0,2.7-0.5,3.5-1.6c0.8-1.1,1.3-2.6,1.3-4.5V288.7z"/>
	<path class="st2" d="M74.4,282.9h-5.4v14.5h-1.3v-14.5h-5.3v-1.1h12V282.9z"/>
	<path class="st2" d="M89.3,290.4c0,1.4-0.2,2.7-0.7,3.8c-0.5,1.1-1.2,1.9-2.1,2.5c-0.9,0.6-2,0.9-3.2,0.9c-1.8,0-3.3-0.7-4.4-2
		c-1.1-1.3-1.7-3.1-1.7-5.3v-1.6c0-1.4,0.3-2.7,0.8-3.8s1.2-1.9,2.1-2.5s2-0.9,3.2-0.9s2.3,0.3,3.2,0.9c0.9,0.6,1.6,1.4,2.1,2.5
		c0.5,1.1,0.8,2.3,0.8,3.7V290.4z M88,288.7c0-1.9-0.4-3.4-1.3-4.4c-0.9-1.1-2-1.6-3.5-1.6c-1.5,0-2.6,0.5-3.5,1.6
		c-0.9,1.1-1.3,2.6-1.3,4.5v1.6c0,1.9,0.4,3.3,1.3,4.4s2,1.6,3.5,1.6c1.5,0,2.7-0.5,3.5-1.6c0.8-1.1,1.3-2.6,1.3-4.5V288.7z"/>
	<path class="st2" d="M101.5,296.3h7.7v1.1h-9.1v-15.6h1.3V296.3z"/>
	<path class="st2" d="M114.5,297.4h-1.3v-15.6h1.3V297.4z"/>
	<path class="st2" d="M131.1,295.5c-0.5,0.7-1.2,1.2-2.2,1.5s-2.1,0.5-3.3,0.5c-1.2,0-2.3-0.3-3.3-0.9c-1-0.6-1.7-1.4-2.2-2.5
		c-0.5-1.1-0.8-2.3-0.8-3.7v-2c0-2.2,0.5-3.9,1.6-5.1s2.6-1.9,4.4-1.9c1.6,0,2.9,0.4,3.9,1.2c1,0.8,1.6,1.9,1.8,3.4h-1.3
		c-0.2-1.1-0.7-2-1.4-2.6c-0.7-0.6-1.7-0.9-2.9-0.9c-1.5,0-2.6,0.5-3.5,1.6c-0.9,1-1.3,2.5-1.3,4.4v1.8c0,1.2,0.2,2.2,0.6,3.2
		c0.4,0.9,1,1.6,1.7,2.1c0.8,0.5,1.6,0.8,2.6,0.8c1.1,0,2.1-0.2,2.9-0.5c0.5-0.2,0.9-0.5,1.2-0.8v-4h-4.2V290h5.5V295.5z"/>
	<path class="st2" d="M147.6,297.4h-1.3v-7.5h-8.9v7.5H136v-15.6h1.3v7h8.9v-7h1.3V297.4z"/>
	<path class="st2" d="M163,282.9h-5.4v14.5h-1.3v-14.5h-5.3v-1.1h12V282.9z"/>
</g>
</svg>
